<!DOCTYPE svg PUBLIC "-//W3C//DTD SVG 20010904//EN" "http://www.w3.org/TR/2001/REC-SVG-20010904/DTD/svg10.dtd">
<svg version="1.0" xmlns="http://www.w3.org/2000/svg" width="960px" height="1080px" viewBox="0 0 9600 10800" preserveAspectRatio="xMidYMid meet">
<g id="layer101" fill="#202735" stroke="none">
 <path d="M4072 8878 c-7 -7 -12 -31 -12 -55 l0 -43 -120 0 c-174 0 -200 -19 -200 -151 0 -43 -4 -59 -14 -59 -18 0 -26 44 -26 136 l0 74 -144 0 c-145 0 -145 0 -165 -27 l-21 -26 -26 24 c-22 21 -37 24 -113 27 -67 3 -96 0 -119 -12 -38 -20 -42 -20 -42 -1 0 13 -13 15 -77 13 l-78 -3 -6 -110 -5 -110 -2 97 c-1 53 -5 103 -8 112 -5 13 -22 16 -81 16 -66 0 -75 -2 -80 -20 -5 -19 -5 -19 -44 0 -59 31 -174 28 -223 -5 l-36 -24 -36 24 c-31 21 -49 25 -111 25 -136 0 -182 -46 -183 -183 0 -97 21 -142 90 -190 52 -36 173 -12 221 43 16 18 17 18 40 -6 58 -63 138 -72 222 -25 l52 28 20 -23 c14 -17 30 -24 58 -24 20 0 37 5 37 11 0 5 10 3 22 -5 43 -30 127 -15 181 32 16 14 19 13 40 -5 12 -11 32 -26 44 -32 35 -18 119 -13 163 9 44 22 66 18 76 -13 8 -26 30 -49 70 -70 27 -15 13 -16 -223 -17 l-252 0 -3 -157 -3 -158 -86 155 -86 155 -228 0 -228 0 -91 -160 -91 -159 -3 162 -2 162 -205 0 -205 0 0 -385 0 -386 25 -48 c25 -51 49 -74 133 -131 29 -19 52 -38 52 -41 0 -3 -10 -11 -22 -18 -28 -15 -100 -119 -127 -183 -34 -80 -51 -189 -51 -323 0 -287 306 -4163 351 -4443 24 -152 146 -409 233 -491 13 -12 29 -35 35 -49 6 -15 28 -38 49 -52 44 -29 111 -100 112 -118 0 -6 3 -11 8 -10 8 1 30 -7 77 -27 95 -43 146 -55 245 -61 58 -3 110 -7 117 -9 7 -2 15 1 19 6 3 6 16 8 27 5 12 -3 26 -1 33 5 6 5 26 12 44 14 17 2 38 12 46 22 10 13 13 14 14 4 0 -10 9 -6 28 12 16 15 31 24 35 20 4 -3 7 -1 7 7 0 10 3 10 16 0 8 -8 14 -9 12 -4 -4 15 64 84 75 77 6 -4 8 1 3 12 -6 16 -4 16 10 4 15 -12 16 -12 10 7 -5 17 -2 23 17 27 14 4 27 19 36 42 7 21 17 33 23 29 7 -4 8 -2 4 5 -4 6 5 24 23 41 16 17 28 30 26 30 -9 0 42 87 62 107 11 11 23 38 26 61 5 28 13 43 27 47 11 3 23 18 26 33 3 15 15 45 25 68 10 22 19 49 19 60 0 11 13 46 29 79 16 33 37 87 46 120 10 33 25 76 35 95 12 24 19 69 23 145 l5 110 185 500 c102 275 291 788 422 1140 130 352 241 644 246 650 5 5 9 -1 9 -18 0 -26 7 -35 42 -60 11 -7 174 -437 427 -1127 225 -613 423 -1153 441 -1200 18 -47 88 -238 156 -425 146 -400 154 -414 343 -597 108 -107 140 -132 212 -167 128 -63 215 -81 386 -81 128 0 150 3 202 24 109 44 213 133 258 219 8 18 27 45 40 61 36 43 107 190 132 271 44 146 78 550 227 2665 156 2227 158 2253 116 2401 -23 82 -62 134 -110 149 -20 6 -55 21 -76 32 -22 12 -58 27 -80 34 l-41 13 56 0 c118 2 204 44 302 151 83 89 87 109 87 424 0 289 -3 301 -71 387 l-31 39 -568 0 -569 0 -30 -37 -31 -38 0 38 0 37 -187 1 c-123 0 -180 3 -165 9 20 9 28 30 23 68 -1 6 7 12 19 12 11 0 20 5 20 10 0 6 11 10 25 10 25 0 25 1 25 88 0 48 5 94 10 102 7 10 10 -18 10 -87 0 -85 3 -103 15 -103 8 0 15 -4 15 -10 0 -5 18 -10 40 -10 22 0 40 5 40 10 0 20 39 10 46 -12 8 -28 31 -51 74 -73 20 -10 35 -13 39 -7 3 5 15 11 26 13 16 3 21 13 23 47 3 34 7 42 23 42 10 0 19 -4 19 -10 0 -5 18 -10 40 -10 22 0 40 5 40 10 0 6 11 10 25 10 25 0 25 1 25 88 0 48 5 94 10 102 7 10 10 -18 10 -87 0 -85 3 -103 15 -103 8 0 15 -4 15 -10 0 -5 18 -10 40 -10 22 0 40 5 40 10 0 6 16 10 35 10 19 0 35 -5 35 -11 0 -6 18 -9 45 -8 24 2 47 0 51 -4 13 -12 62 -8 97 9 31 15 36 15 65 0 48 -25 114 -20 173 11 73 40 94 79 94 178 0 136 -50 185 -188 185 -60 0 -80 -4 -108 -23 -44 -29 -69 -80 -69 -139 0 -27 -4 -48 -9 -48 -13 0 -21 53 -21 137 l0 74 -217 -4 c-120 -3 -222 -5 -228 -5 -5 0 -47 2 -91 4 -79 5 -82 5 -103 -22 l-21 -27 0 27 0 26 -130 0 c-145 0 -176 -9 -196 -55 l-13 -30 -1 43 0 43 -77 -3 -78 -3 -3 -111 c-2 -102 -4 -112 -22 -117 -17 -4 -20 -14 -20 -59 0 -43 5 -57 25 -77 14 -13 25 -29 25 -36 0 -6 9 -23 21 -36 l21 -24 -263 -3 -263 -2 -28 -27 -28 -27 0 27 c0 26 -2 27 -57 28 -32 1 -46 4 -30 6 27 4 27 5 27 81 l0 76 33 -31 c45 -43 69 -53 121 -53 60 0 140 42 169 90 18 28 22 50 22 115 0 135 -50 185 -185 185 -74 0 -99 -8 -137 -43 l-23 -20 0 31 0 32 -125 0 c-131 0 -172 -10 -194 -47 -9 -15 -10 -12 -11 15 l0 33 -77 -3 -78 -3 -6 -110 -5 -110 -2 97 c-1 53 -5 103 -8 112 -9 22 -152 23 -160 1 -5 -13 -9 -13 -34 0 -38 20 -162 20 -199 1 -35 -19 -50 -37 -66 -82 l-12 -37 -30 79 -30 79 111 6 111 5 -108 2 -108 2 -33 35 c-32 34 -36 35 -108 35 -44 0 -79 -5 -86 -12z m39 -151 c19 5 19 4 -2 -53 -12 -33 -23 -61 -25 -63 -2 -2 -4 27 -3 65 0 38 3 64 5 58 3 -7 14 -10 25 -7z m-574 -154 c-2 -16 -4 -5 -4 22 0 28 2 40 4 28 2 -13 2 -35 0 -50z m3050 0 c-2 -16 -4 -5 -4 22 0 28 2 40 4 28 2 -13 2 -35 0 -50z m-4293 2 c-23 -17 -34 -11 -34 19 0 34 11 39 33 15 18 -20 18 -21 1 -34z m301 20 c0 -32 -19 -45 -29 -19 -9 22 3 56 17 51 7 -2 12 -16 12 -32z m2573 -6 c-1 -13 -7 -23 -13 -22 -13 3 -18 30 -11 50 10 24 29 1 24 -28z m337 6 c0 -32 -19 -45 -29 -19 -9 22 3 56 17 51 7 -2 12 -16 12 -32z m1800 0 c0 -32 -19 -45 -29 -19 -9 22 3 56 17 51 7 -2 12 -16 12 -32z m-3370 -175 c8 0 15 -4 15 -10 0 -5 18 -10 40 -10 22 0 40 5 40 10 0 6 9 10 20 10 11 0 20 -4 20 -10 0 -5 20 -10 45 -10 25 0 45 5 45 10 0 6 9 10 20 10 14 0 23 11 32 41 l12 41 13 -36 c6 -20 19 -43 27 -51 16 -16 96 -21 96 -6 0 17 55 20 73 3 9 -8 42 -17 72 -20 47 -4 60 0 102 25 l48 30 20 -23 c14 -17 31 -24 58 -24 20 0 37 5 37 11 0 5 10 3 22 -5 46 -32 159 -6 190 44 11 18 14 17 55 -21 36 -33 49 -39 88 -39 43 0 45 -1 45 -30 0 -17 7 -33 18 -39 12 -8 -16 -10 -100 -11 l-118 0 0 -162 0 -163 -89 160 -88 160 -229 0 -229 0 -90 -159 -90 -160 -3 162 -2 162 -335 0 c-200 0 -335 4 -335 9 0 5 10 11 23 13 18 2 23 10 25 46 3 34 7 42 23 42 10 0 19 -5 19 -11 0 -6 18 -10 43 -8 23 1 50 -2 60 -6 9 -4 32 -4 50 -1 17 4 53 6 80 6 26 -1 47 4 47 10 0 5 11 10 25 10 25 0 25 1 25 84 0 124 14 139 18 19 2 -83 6 -103 17 -103z m2495 -560 l0 -140 -285 0 c-301 0 -329 4 -368 47 -15 17 -17 35 -15 104 l3 84 323 3 c314 2 322 3 322 22 0 11 5 20 10 20 6 0 10 -53 10 -140z m934 74 c10 -26 7 -109 -5 -143 -19 -54 -47 -61 -244 -61 -188 0 -217 6 -249 52 -16 23 -21 102 -10 146 l6 22 248 0 c217 0 249 -2 254 -16z m-4707 -266 c54 -95 117 -197 141 -225 l42 -53 -109 0 c-101 0 -110 2 -116 20 -9 28 -37 33 -183 29 l-129 -4 37 55 c21 30 74 121 120 203 45 81 86 147 90 147 5 0 53 -78 107 -172z m2014 -9 c57 -100 118 -197 135 -218 17 -20 64 -58 105 -86 68 -47 78 -50 145 -53 40 -2 88 1 107 7 44 15 143 100 181 156 l28 43 36 -40 c34 -38 159 -129 192 -140 8 -3 -9 -10 -38 -16 -194 -43 -289 -196 -280 -452 4 -121 29 -190 90 -250 144 -141 180 -173 232 -200 l58 -30 507 0 c578 0 551 4 551 -78 0 -26 -54 -779 -120 -1674 -66 -895 -120 -1640 -120 -1655 0 -17 -4 -23 -9 -18 -14 14 -911 2430 -926 2492 -7 29 -18 59 -25 68 -8 10 -10 30 -5 61 10 71 -3 142 -31 167 -19 17 -24 30 -24 71 0 57 -4 64 -42 89 -24 15 -28 24 -28 62 0 30 -6 50 -19 62 -31 31 -41 59 -41 125 0 72 -5 83 -42 97 -38 14 -52 71 -49 207 2 134 -3 144 -83 144 -48 0 -55 3 -95 44 -77 78 -225 126 -391 126 -204 0 -332 -62 -445 -217 -46 -64 -61 -96 -120 -275 -60 -181 -557 -1523 -1006 -2718 l-164 -435 -8 50 c-8 56 -267 3144 -267 3192 0 23 6 32 23 38 12 4 25 7 30 6 4 -1 7 3 7 9 0 7 178 10 514 10 l514 0 48 33 c27 18 63 56 81 83 18 27 47 67 64 89 105 131 126 369 47 535 -35 72 -132 177 -187 199 -26 11 -31 18 -27 35 3 12 6 27 6 35 0 10 8 7 28 -10 41 -38 131 -100 168 -115 46 -19 148 -18 191 2 19 10 67 49 106 88 71 70 96 109 221 334 31 56 61 102 65 102 5 0 55 -81 112 -181z m-1311 -214 l0 -55 -46 0 -47 0 25 19 c13 11 33 35 43 55 11 20 21 36 22 36 2 0 3 -25 3 -55z m3259 -67 l74 -48 -142 0 c-87 0 -141 4 -141 10 0 6 5 10 10 10 6 0 22 11 35 25 20 19 25 34 25 75 l0 51 33 -37 c17 -21 65 -59 106 -86z"/>
 <path d="M1878 8813 c23 -2 61 -2 85 0 23 2 4 4 -43 4 -47 0 -66 -2 -42 -4z"/>
 <path d="M2163 8813 c26 -2 67 -2 90 0 23 2 2 3 -48 3 -49 0 -68 -1 -42 -3z"/>
 <path d="M2473 8813 c43 -2 110 -2 150 0 40 1 5 3 -78 3 -82 0 -115 -2 -72 -3z"/>
 <path d="M2858 8813 c39 -2 105 -2 145 0 39 1 7 3 -73 3 -80 0 -112 -2 -72 -3z"/>
 <path d="M3183 8813 c26 -2 67 -2 90 0 23 2 2 3 -48 3 -49 0 -68 -1 -42 -3z"/>
 <path d="M3438 8813 c23 -2 61 -2 85 0 23 2 4 4 -43 4 -47 0 -66 -2 -42 -4z"/>
 <path d="M3693 8813 c59 -2 155 -2 215 0 59 1 10 3 -108 3 -118 0 -167 -2 -107 -3z"/>
 <path d="M4568 8813 c23 -2 61 -2 85 0 23 2 4 4 -43 4 -47 0 -66 -2 -42 -4z"/>
 <path d="M4812 8813 c37 -2 100 -2 140 0 40 1 10 3 -67 3 -77 0 -110 -1 -73 -3z"/>
 <path d="M5133 8813 c26 -2 67 -2 90 0 23 2 2 3 -48 3 -49 0 -68 -1 -42 -3z"/>
 <path d="M5588 8813 c23 -2 61 -2 85 0 23 2 4 4 -43 4 -47 0 -66 -2 -42 -4z"/>
 <path d="M5818 8813 c23 -2 59 -2 80 0 20 2 1 4 -43 4 -44 0 -61 -2 -37 -4z"/>
 <path d="M6118 8813 c23 -2 59 -2 80 0 20 2 1 4 -43 4 -44 0 -61 -2 -37 -4z"/>
 <path d="M6368 8813 c39 -2 105 -2 145 0 39 1 7 3 -73 3 -80 0 -112 -2 -72 -3z"/>
 <path d="M6648 8813 c23 -2 61 -2 85 0 23 2 4 4 -43 4 -47 0 -66 -2 -42 -4z"/>
 <path d="M6903 8813 c59 -2 155 -2 215 0 59 1 10 3 -108 3 -118 0 -167 -2 -107 -3z"/>
 <path d="M7403 8813 c26 -2 67 -2 90 0 23 2 2 3 -48 3 -49 0 -68 -1 -42 -3z"/>
 </g>
<g id="layer102" fill="#3d4a64" stroke="none">
 <path d="M4097 8773 c-4 -3 -7 -16 -7 -29 0 -17 4 -21 20 -17 26 7 60 -23 60 -52 0 -17 -56 -170 -97 -262 -4 -9 7 -13 38 -13 l44 0 29 96 c17 53 33 89 36 82 4 -7 18 -50 31 -95 l24 -83 43 0 c41 0 51 7 33 26 -5 5 -30 68 -56 139 -69 188 -71 193 -114 205 -42 11 -75 13 -84 3z"/>
 <path d="M2770 8584 c0 -50 -3 -112 -6 -138 l-7 -46 42 0 c22 0 41 5 41 11 0 5 10 3 22 -5 36 -25 104 -21 133 9 24 23 25 30 25 142 l0 118 -37 -1 -38 -1 -5 -112 c-4 -84 -9 -114 -20 -121 -22 -14 -28 -12 -55 15 -23 22 -25 31 -25 122 l0 98 -35 0 -35 0 0 -91z"/>
 <path d="M3575 8662 c-3 -8 -5 -70 -5 -139 l0 -125 45 3 c24 2 47 0 51 -4 10 -9 66 -9 81 1 19 12 -13 52 -42 52 -41 0 -55 34 -55 135 l0 90 -35 0 c-20 0 -37 -6 -40 -13z"/>
 <path d="M4700 8584 c0 -50 -3 -112 -6 -138 l-7 -46 42 0 c22 0 41 5 41 11 0 5 10 3 22 -5 36 -25 104 -21 133 9 24 23 25 30 25 142 l0 118 -37 -1 -38 -1 -5 -112 c-4 -84 -9 -114 -20 -121 -22 -14 -28 -12 -55 15 -23 22 -25 31 -25 122 l0 98 -35 0 -35 0 0 -91z"/>
 <path d="M5250 8673 c-14 -3 -28 -9 -31 -14 -3 -6 -23 -5 -51 2 -92 25 -158 -31 -158 -134 0 -54 19 -98 52 -121 26 -18 90 -21 119 -6 18 10 19 7 19 -45 l0 -55 40 0 40 0 0 190 c0 105 -1 189 -2 189 -2 -1 -14 -4 -28 -6z m-80 -53 c11 -6 24 -28 30 -50 18 -67 -12 -140 -57 -140 -5 0 -19 9 -31 20 -31 30 -32 124 0 157 24 26 31 27 58 13z"/>
 <path d="M5954 8641 c-4 -18 -4 -69 -1 -112 5 -74 4 -78 -16 -81 -29 -4 -37 -48 -9 -48 15 0 21 -9 26 -40 4 -24 14 -43 25 -50 21 -11 114 -14 124 -4 9 10 -13 45 -24 39 -19 -13 -49 6 -49 31 0 20 5 24 31 24 24 0 30 3 25 16 -3 9 -6 19 -6 23 0 4 -10 7 -22 7 -22 -1 -23 3 -28 114 l-5 115 -32 0 c-30 0 -34 -3 -39 -34z"/>
 <path d="M6955 8662 c-3 -8 -5 -70 -5 -139 l0 -125 45 3 c24 2 47 0 51 -4 10 -9 66 -9 81 1 19 12 -13 52 -42 52 -41 0 -55 34 -55 135 l0 90 -35 0 c-20 0 -37 -6 -40 -13z"/>
 <path d="M2215 8663 c-71 -17 -108 -127 -69 -208 22 -48 68 -69 137 -63 59 5 91 24 100 59 4 16 0 19 -25 19 -16 0 -41 -9 -55 -20 -14 -11 -32 -20 -39 -20 -33 0 -54 39 -54 98 0 49 4 62 25 82 21 20 28 22 50 12 14 -6 25 -18 25 -27 0 -10 10 -15 33 -15 50 0 61 12 38 41 -29 38 -105 57 -166 42z"/>
 <path d="M2510 8657 c-47 -16 -80 -68 -80 -124 0 -88 55 -143 143 -143 89 0 141 54 139 144 -2 104 -94 160 -202 123z m90 -37 c20 -11 40 -59 40 -97 0 -38 -28 -82 -56 -89 -68 -17 -106 115 -49 171 27 27 37 30 65 15z"/>
 <path d="M3144 8659 c-16 -5 -41 -20 -54 -34 -21 -22 -22 -28 -10 -35 25 -16 59 -11 90 11 34 26 80 20 80 -10 0 -19 -29 -35 -87 -46 -88 -17 -114 -103 -42 -140 34 -18 122 -20 152 -3 25 13 46 38 47 55 0 20 -63 20 -82 1 -22 -22 -61 -23 -79 -2 -17 20 -2 30 68 44 66 14 103 42 103 80 0 67 -92 107 -186 79z"/>
 <path d="M3440 8663 c-32 -11 -40 -37 -40 -125 0 -69 -3 -88 -14 -88 -13 0 -26 -20 -26 -41 0 -5 9 -9 20 -9 15 0 20 -7 20 -28 0 -23 7 -32 35 -45 20 -9 38 -17 40 -17 3 0 5 20 5 45 0 41 2 45 25 45 14 0 25 4 25 9 0 21 -12 39 -23 35 -29 -10 -35 11 -28 96 6 81 7 85 29 83 17 -2 22 2 22 22 0 22 -4 25 -37 24 -21 0 -45 -3 -53 -6z"/>
 <path d="M3818 8658 c-36 -12 -48 -56 -48 -170 l0 -88 40 0 40 0 0 93 c0 125 29 168 80 117 17 -17 20 -33 20 -115 l0 -95 40 0 40 0 0 135 0 135 -35 0 c-24 0 -35 -5 -35 -14 0 -13 -4 -13 -27 0 -32 16 -75 17 -115 2z"/>
 <path d="M4461 8661 c-78 -21 -101 -175 -37 -239 20 -20 38 -27 84 -30 54 -4 62 -2 90 24 20 18 35 44 40 69 14 68 11 70 -76 67 -89 -3 -110 5 -93 36 17 32 47 45 71 32 11 -6 20 -15 20 -20 0 -13 50 -13 70 0 12 8 12 11 -3 28 -31 34 -109 49 -166 33z m109 -171 c0 -23 -33 -60 -53 -60 -24 0 -64 60 -50 74 4 3 28 6 55 6 41 0 48 -3 48 -20z"/>
 <path d="M5420 8657 c-47 -16 -80 -68 -80 -124 0 -88 55 -143 143 -143 89 0 141 54 139 144 -2 104 -94 160 -202 123z m90 -37 c20 -11 40 -59 40 -97 0 -38 -28 -82 -56 -89 -68 -17 -106 115 -49 171 27 27 37 30 65 15z"/>
 <path d="M6158 8658 c-36 -12 -48 -56 -48 -170 l0 -88 40 0 40 0 0 93 c0 125 29 168 80 117 17 -17 20 -33 20 -115 l0 -95 40 0 40 0 0 135 0 135 -35 0 c-24 0 -35 -5 -35 -14 0 -13 -4 -13 -27 0 -32 16 -75 17 -115 2z"/>
 <path d="M6490 8663 c-32 -11 -40 -37 -40 -125 0 -69 -3 -88 -14 -88 -13 0 -26 -20 -26 -41 0 -5 9 -9 20 -9 15 0 20 -7 20 -28 0 -23 7 -32 35 -45 20 -9 38 -17 40 -17 3 0 5 20 5 45 0 41 2 45 25 45 14 0 25 4 25 9 0 21 -12 39 -23 35 -29 -10 -35 11 -28 96 6 81 7 85 29 83 17 -2 22 2 22 22 0 22 -4 25 -37 24 -21 0 -45 -3 -53 -6z"/>
 <path d="M6668 8658 c-36 -12 -48 -56 -48 -170 l0 -88 40 0 40 0 0 93 c0 125 29 168 80 117 17 -17 20 -33 20 -115 l0 -95 40 0 40 0 0 135 0 135 -35 0 c-24 0 -35 -5 -35 -14 0 -13 -4 -13 -27 0 -32 16 -75 17 -115 2z"/>
 <path d="M7220 8657 c-45 -16 -80 -68 -80 -119 0 -91 55 -148 143 -148 89 0 141 54 139 144 -2 104 -94 160 -202 123z m90 -37 c20 -11 40 -59 40 -97 0 -38 -28 -82 -56 -89 -68 -17 -106 115 -49 171 27 27 37 30 65 15z"/>
 <path d="M3700 8140 c0 -16 -72 -30 -162 -30 l-88 0 0 -400 0 -400 130 0 130 0 0 420 c0 231 -2 420 -5 420 -3 0 -5 -4 -5 -10z"/>
 <path d="M2035 8125 c-18 -9 -66 -14 -122 -15 l-93 0 0 -327 0 -326 24 -42 c44 -74 121 -115 218 -115 81 0 145 35 201 110 23 30 98 155 166 278 68 122 126 222 130 222 4 0 65 -102 136 -227 148 -259 181 -307 239 -348 34 -25 52 -30 113 -33 87 -5 133 9 186 57 76 68 77 73 77 448 l0 332 -36 -15 c-26 -11 -63 -14 -131 -12 l-94 3 4 -225 c3 -124 6 -238 8 -254 3 -24 -1 -33 -23 -45 -25 -14 -29 -14 -54 4 -14 11 -36 43 -48 71 -11 28 -68 133 -126 234 -123 214 -123 214 -258 208 -75 -3 -86 -6 -105 -28 -12 -14 -82 -130 -156 -257 -135 -234 -158 -262 -202 -248 -11 4 -19 12 -20 18 0 7 0 132 1 280 1 147 0 267 -2 266 -2 0 -16 -7 -33 -14z"/>
 <path d="M4035 8123 c-27 -9 -69 -13 -128 -11 l-88 3 3 -325 3 -325 27 -46 c31 -52 102 -105 155 -115 67 -13 147 0 189 30 61 45 102 104 242 354 l130 233 147 -255 c192 -334 223 -366 362 -366 81 0 138 25 186 81 54 63 57 85 57 436 l0 321 -42 -15 c-28 -9 -72 -13 -130 -11 l-89 3 4 -225 c2 -124 7 -237 11 -252 7 -22 4 -29 -19 -44 -25 -16 -30 -16 -54 -3 -14 8 -34 33 -44 54 -10 22 -69 129 -130 239 -131 232 -129 230 -263 224 -62 -2 -87 -7 -102 -21 -12 -11 -80 -122 -153 -248 -148 -258 -183 -298 -219 -254 -9 11 -12 82 -11 285 1 148 1 269 -1 269 -2 -1 -21 -8 -43 -16z"/>
 <path d="M6370 8124 c-26 -10 -117 -13 -365 -13 -207 -1 -345 -5 -370 -12 -49 -14 -91 -42 -161 -109 l-55 -53 3 -217 3 -217 30 -49 c35 -56 110 -116 165 -133 25 -7 163 -11 414 -11 l376 0 0 98 c0 53 -4 92 -8 86 -20 -30 -55 -34 -319 -34 -239 0 -272 2 -309 19 -77 35 -82 50 -83 232 -1 132 1 165 15 188 35 60 42 61 388 61 l316 0 0 90 c0 50 -1 89 -2 89 -2 -1 -19 -7 -38 -15z"/>
 <path d="M6719 8096 c-45 -16 -83 -43 -134 -95 -21 -23 -45 -41 -52 -41 -10 0 -13 -44 -13 -207 0 -115 5 -225 10 -245 16 -55 79 -129 141 -163 l54 -30 355 -3 c303 -3 364 -1 416 13 81 22 150 75 186 144 l28 53 0 228 c0 126 -3 235 -6 244 -3 9 -13 16 -21 16 -9 0 -38 16 -65 36 -85 63 -86 63 -493 63 -277 0 -379 -3 -406 -13z m688 -166 c42 -25 48 -50 48 -187 0 -62 3 -113 8 -113 16 0 6 -69 -15 -95 -45 -57 -80 -65 -323 -65 -193 0 -225 3 -261 19 -73 33 -81 53 -83 196 -2 145 9 197 49 237 l28 28 259 0 c239 0 260 -2 290 -20z"/>
 <path d="M2231 6953 c6 -19 27 -37 67 -58 l57 -30 575 -2 c366 -2 591 -7 619 -14 116 -27 235 -120 282 -218 13 -27 26 -48 30 -45 4 2 10 -3 13 -12 4 -10 -7 -32 -26 -57 -26 -35 -27 -38 -6 -19 37 33 80 117 84 165 2 23 5 47 5 52 1 6 -3 36 -9 67 -12 63 -41 127 -68 149 -21 17 -43 18 -845 23 -391 3 -659 9 -695 15 -90 17 -95 16 -83 -16z"/>
 <path d="M5739 6935 c-4 -4 -115 -16 -169 -19 -57 -3 -110 -66 -110 -130 0 -31 50 -157 60 -151 4 3 10 -5 14 -18 5 -20 8 -18 33 23 15 25 27 48 25 53 -1 4 3 7 8 7 6 0 10 6 10 13 0 6 10 20 23 30 12 10 35 28 50 41 16 13 52 28 80 35 72 15 1477 31 1534 16 18 -4 21 -9 14 -28 -10 -27 -9 -34 24 -127 31 -84 36 -163 22 -335 -4 -55 -17 -224 -28 -375 -10 -151 -26 -365 -34 -475 -8 -110 -31 -427 -50 -705 -19 -278 -42 -595 -50 -705 -22 -297 -23 -305 -55 -765 -37 -528 -40 -571 -45 -590 -2 -8 -6 -53 -10 -100 -11 -145 -33 -284 -72 -437 -14 -57 -14 -65 1 -103 9 -23 14 -45 11 -50 -3 -5 1 -14 8 -22 14 -14 14 -29 2 -59 -3 -10 -1 -20 6 -25 8 -4 10 -3 5 4 -5 8 -2 10 8 6 16 -6 14 -17 -10 -44 -7 -9 -14 -33 -15 -55 -1 -22 -7 -46 -13 -53 -5 -8 -11 -23 -13 -34 -4 -26 -22 -58 -32 -58 -4 0 -7 -13 -6 -30 1 -20 -3 -30 -12 -30 -8 0 -11 -4 -8 -10 3 -5 1 -10 -4 -10 -6 0 -11 -7 -11 -15 0 -8 -4 -15 -10 -15 -5 0 -9 -3 -8 -7 1 -5 -4 -19 -11 -32 -12 -22 -11 -26 8 -42 22 -18 24 -17 71 14 27 18 54 46 63 65 11 24 11 30 2 22 -10 -8 -15 -8 -21 1 -4 8 -3 9 4 5 11 -6 16 6 13 27 0 4 4 7 9 7 6 0 10 10 10 23 0 12 9 40 20 61 10 22 17 43 14 47 -3 5 0 9 7 9 7 0 10 3 6 6 -3 4 0 19 8 35 8 15 12 36 8 45 -5 12 -3 15 6 9 10 -6 11 -3 2 13 -8 15 -8 23 1 28 7 5 8 3 3 -7 -7 -12 -6 -12 7 -1 9 7 14 21 11 31 -3 10 0 22 6 25 6 4 11 16 11 27 0 13 -4 18 -12 13 -8 -5 -9 -2 -3 12 10 25 13 86 5 99 -4 6 -7 35 -8 65 0 30 -1 57 -2 60 -3 6 -2 9 5 46 3 16 8 56 11 89 3 33 7 66 10 74 2 7 7 43 9 80 3 36 10 104 15 151 5 47 12 128 15 180 7 109 14 210 20 290 4 55 11 150 21 290 2 41 6 95 9 120 2 25 7 90 10 145 3 55 8 123 10 150 4 47 8 96 20 283 3 42 8 104 10 137 3 33 14 188 25 345 11 157 22 312 25 345 2 33 9 128 15 210 6 83 12 175 15 205 9 110 15 198 25 355 6 88 12 183 15 210 2 28 7 93 10 145 3 52 8 113 10 135 19 179 23 330 10 493 -5 78 -5 116 3 121 12 7 -9 35 -52 69 l-29 22 -822 0 c-452 0 -824 -2 -826 -5z m1401 -4972 c0 -30 -9 -27 -15 6 -2 11 0 21 6 21 5 0 9 -12 9 -27z"/>
 <path d="M1922 6833 c-30 -72 -42 -143 -42 -252 0 -161 225 -3093 306 -3991 38 -430 35 -410 103 -600 30 -83 71 -152 141 -234 46 -54 103 -111 113 -113 25 -4 124 -49 132 -60 6 -7 21 -15 35 -17 14 -3 25 -5 25 -6 0 -7 59 -12 166 -15 122 -3 129 -2 185 25 33 15 60 25 62 20 4 -11 62 42 62 57 0 7 4 13 9 13 15 0 161 190 185 240 11 25 25 48 30 51 5 4 6 11 2 17 -7 12 32 165 75 295 16 51 37 121 45 157 8 36 18 74 23 85 5 11 71 187 146 390 76 204 148 397 161 430 12 33 48 128 79 210 30 83 60 159 65 170 5 11 50 130 100 265 50 135 94 254 99 265 22 51 37 89 83 215 27 74 62 169 78 210 15 41 56 149 90 240 91 244 102 272 116 305 7 17 22 58 35 93 31 87 34 85 74 -38 9 -30 43 -118 75 -195 32 -77 304 -810 605 -1630 657 -1793 589 -1612 634 -1682 50 -78 165 -182 249 -226 117 -62 247 -86 295 -54 40 26 41 50 8 114 -44 84 -42 103 25 173 76 80 73 91 -54 175 -110 72 -128 88 -232 205 -41 47 -81 91 -88 98 -31 34 -76 110 -162 277 -77 149 -128 274 -302 735 -115 305 -254 674 -309 820 -55 146 -134 355 -176 465 -164 437 -237 623 -264 677 -16 31 -41 92 -55 135 -31 92 -50 131 -74 152 -10 9 -29 50 -43 92 -36 107 -57 147 -80 153 -50 13 -117 -47 -168 -150 -33 -67 -49 -144 -30 -144 6 0 11 -8 11 -17 -1 -32 -142 -421 -195 -538 -14 -30 -37 -90 -410 -1080 -112 -297 -249 -661 -305 -810 -57 -148 -112 -297 -124 -330 -12 -33 -24 -64 -28 -70 -3 -5 -13 -44 -23 -85 -26 -115 -35 -142 -60 -180 -47 -74 -65 -120 -65 -167 0 -26 -11 -100 -24 -163 -27 -133 -66 -220 -132 -290 -48 -52 -145 -103 -212 -114 -45 -7 -168 10 -177 24 -3 5 15 16 40 25 68 27 72 37 27 76 -49 43 -56 62 -33 91 27 34 43 92 35 124 -4 16 -44 67 -90 115 -45 48 -100 119 -123 157 -77 132 -166 380 -200 562 -6 30 -24 226 -41 435 -16 209 -45 578 -65 820 -117 1471 -176 2231 -180 2310 -3 77 0 100 21 160 23 67 24 71 8 117 -23 71 -44 93 -88 90 -20 -2 -36 2 -36 8 0 5 -6 10 -13 10 -18 0 -92 79 -101 108 -4 12 -12 22 -17 22 -6 0 -7 5 -4 10 3 6 2 10 -3 10 -5 0 -19 -21 -30 -47z"/>
 <path d="M2492 6696 c-63 -16 -82 -31 -138 -117 -48 -72 -52 -94 -28 -140 9 -19 17 -68 20 -132 3 -56 16 -241 29 -412 14 -170 32 -395 40 -500 9 -104 22 -271 30 -370 8 -99 28 -353 45 -565 91 -1169 121 -1533 130 -1605 6 -44 11 -87 11 -95 1 -8 15 -60 32 -115 43 -142 108 -240 190 -287 38 -22 66 -33 73 -27 6 5 15 4 22 -3 6 -6 15 -9 18 -5 9 8 -17 33 -44 41 -12 4 -20 12 -17 17 4 5 0 9 -7 9 -29 0 -113 126 -138 208 -30 96 -37 144 -55 367 -3 39 -7 90 -10 115 -2 25 -7 79 -10 120 -3 41 -8 100 -10 130 -3 30 -7 87 -10 125 -4 59 -17 219 -60 770 -3 39 -8 95 -10 125 -3 30 -12 141 -20 245 -9 105 -18 215 -20 245 -3 30 -10 116 -15 190 -6 74 -22 275 -35 445 -14 171 -29 378 -35 460 -6 83 -12 162 -15 177 -2 15 -7 78 -11 140 -6 98 -4 115 10 127 20 17 66 18 76 1 5 -8 10 -8 14 -2 3 6 31 9 61 9 30 -1 55 1 55 4 0 7 40 22 53 20 4 -1 7 4 7 9 0 7 180 11 518 12 284 1 491 3 460 5 -58 4 -67 10 -48 29 54 54 0 175 -100 222 -31 15 -90 17 -520 19 -369 1 -498 -1 -538 -11z"/>
 <path d="M5751 6642 c-33 -13 -49 -27 -64 -56 -19 -37 -20 -42 -5 -117 12 -67 13 -79 1 -79 -28 0 -127 56 -177 99 l-51 45 43 -46 c24 -25 71 -60 104 -77 l61 -31 551 -1 c303 -1 565 -4 581 -8 41 -8 68 -66 73 -151 3 -56 -247 -3524 -263 -3650 -14 -110 -14 -110 -50 -110 -61 0 -67 -7 -45 -51 29 -55 27 -71 -7 -63 -29 8 -95 55 -124 89 -17 20 -82 145 -117 225 -11 25 -61 155 -111 290 -51 135 -103 272 -116 305 -13 33 -53 141 -90 240 -37 99 -82 218 -100 265 -28 71 -69 178 -171 450 -7 19 -24 64 -37 100 -14 36 -50 133 -80 215 -31 83 -97 258 -147 390 -103 272 -131 346 -283 765 -17 47 -34 87 -37 90 -4 3 -10 15 -14 28 -4 13 -15 22 -27 22 -10 0 -19 5 -19 10 0 21 -18 9 -19 -12 -3 -113 -1 -128 43 -248 24 -69 57 -154 71 -190 15 -36 51 -128 80 -205 29 -77 136 -360 238 -630 102 -269 257 -681 345 -915 88 -234 197 -522 241 -640 178 -475 293 -634 501 -699 40 -13 81 -45 99 -79 18 -34 -5 -63 -73 -95 -31 -15 -56 -32 -56 -38 0 -45 76 -93 174 -110 85 -14 200 -6 222 16 17 17 12 45 -8 45 -7 0 -30 5 -50 11 -50 13 -49 30 6 143 69 143 81 197 78 363 -1 100 35 665 123 1895 69 964 130 1809 137 1878 15 162 14 190 -11 245 -17 38 -29 50 -68 67 -47 21 -60 21 -678 24 -578 3 -634 2 -674 -14z"/>
 <path d="M4537 6413 c-56 -22 -78 -38 -135 -97 -66 -71 -68 -73 -134 -256 -405 -1109 -1215 -3263 -1266 -3366 -41 -82 -51 -95 -79 -103 -18 -5 -42 -7 -53 -4 -66 17 36 -161 108 -188 68 -26 245 16 289 69 35 41 68 108 101 207 45 133 96 272 237 645 70 184 198 524 285 755 87 231 224 596 305 810 138 364 205 549 276 753 16 46 37 96 48 110 10 15 33 54 51 87 18 33 44 82 59 108 33 61 54 66 148 36 69 -21 76 -22 101 -7 38 23 65 104 65 200 0 68 -3 82 -28 120 -35 52 -112 127 -143 139 -47 18 -164 9 -235 -18z"/>
 <path d="M2642 5050 c0 -19 2 -27 5 -17 2 9 2 25 0 35 -3 9 -5 1 -5 -18z"/>
 <path d="M2652 4930 c0 -19 2 -27 5 -17 2 9 2 25 0 35 -3 9 -5 1 -5 -18z"/>
 <path d="M2662 4810 c0 -19 2 -27 5 -17 2 9 2 25 0 35 -3 9 -5 1 -5 -18z"/>
 <path d="M2672 4690 c0 -19 2 -27 5 -17 2 9 2 25 0 35 -3 9 -5 1 -5 -18z"/>
 <path d="M2683 4565 c0 -22 2 -30 4 -17 2 12 2 30 0 40 -3 9 -5 -1 -4 -23z"/>
 <path d="M2693 4445 c0 -22 2 -30 4 -17 2 12 2 30 0 40 -3 9 -5 -1 -4 -23z"/>
 <path d="M2703 4325 c0 -22 2 -30 4 -17 2 12 2 30 0 40 -3 9 -5 -1 -4 -23z"/>
 <path d="M2713 4210 c0 -25 2 -35 4 -22 2 12 2 32 0 45 -2 12 -4 2 -4 -23z"/>
 <path d="M2723 4090 c0 -25 2 -35 4 -22 2 12 2 32 0 45 -2 12 -4 2 -4 -23z"/>
 <path d="M2733 3970 c0 -25 2 -35 4 -22 2 12 2 32 0 45 -2 12 -4 2 -4 -23z"/>
 <path d="M2743 3850 c0 -25 2 -35 4 -22 2 12 2 32 0 45 -2 12 -4 2 -4 -23z"/>
 <path d="M2753 3730 c0 -25 2 -35 4 -22 2 12 2 32 0 45 -2 12 -4 2 -4 -23z"/>
 <path d="M2763 3615 c0 -22 2 -30 4 -17 2 12 2 30 0 40 -3 9 -5 -1 -4 -23z"/>
 <path d="M2773 3495 c0 -22 2 -30 4 -17 2 12 2 30 0 40 -3 9 -5 -1 -4 -23z"/>
 <path d="M2783 3375 c0 -22 2 -30 4 -17 2 12 2 30 0 40 -3 9 -5 -1 -4 -23z"/>
 <path d="M2793 3255 c0 -22 2 -30 4 -17 2 12 2 30 0 40 -3 9 -5 -1 -4 -23z"/>
 <path d="M2803 3135 c0 -22 2 -30 4 -17 2 12 2 30 0 40 -3 9 -5 -1 -4 -23z"/>
 <path d="M2813 3015 c0 -22 2 -30 4 -17 2 12 2 30 0 40 -3 9 -5 -1 -4 -23z"/>
 <path d="M2823 2895 c0 -22 2 -30 4 -17 2 12 2 30 0 40 -3 9 -5 -1 -4 -23z"/>
 <path d="M2832 2780 c0 -19 2 -27 5 -17 2 9 2 25 0 35 -3 9 -5 1 -5 -18z"/>
 </g>
<g id="layer103" fill="#7286a9" stroke="none">
 <path d="M4096 8754 c-10 -26 -7 -32 13 -27 25 6 58 -12 66 -36 5 -18 -56 -195 -91 -263 l-15 -28 46 0 c40 0 45 2 45 23 0 12 12 57 27 101 l27 78 28 -83 c15 -46 28 -91 28 -101 0 -15 8 -18 46 -18 l45 0 -19 28 c-11 15 -41 83 -66 151 -56 151 -66 167 -113 180 -51 14 -60 14 -67 -5z"/>
 <path d="M2215 8648 c-11 -6 -32 -22 -47 -36 -25 -23 -28 -32 -28 -91 0 -36 6 -73 13 -81 26 -34 62 -50 112 -50 59 0 95 16 106 48 8 21 6 23 -14 17 -12 -4 -36 -13 -54 -21 -38 -17 -79 -10 -93 16 -13 24 -13 101 0 134 13 35 50 52 79 37 11 -7 21 -18 21 -26 0 -10 11 -15 34 -15 60 0 56 21 -10 58 -45 24 -87 28 -119 10z"/>
 <path d="M2510 8641 c-58 -31 -73 -54 -73 -114 0 -29 6 -63 12 -76 41 -76 194 -82 240 -9 7 11 15 41 18 68 5 42 2 53 -21 83 -29 38 -80 67 -118 67 -12 -1 -39 -9 -58 -19z m105 -36 c21 -20 25 -34 25 -84 0 -65 -13 -86 -57 -97 -17 -5 -33 0 -51 13 -23 17 -27 29 -30 77 -3 51 0 59 27 86 36 36 54 38 86 5z"/>
 <path d="M2770 8544 c0 -62 -3 -119 -6 -128 -5 -13 2 -16 35 -16 23 0 41 5 41 11 0 5 10 3 22 -5 12 -9 41 -16 63 -16 22 0 51 7 63 16 21 14 22 23 22 128 l0 114 -30 4 -30 5 -1 -94 c-1 -51 -3 -97 -4 -103 -1 -5 -3 -14 -4 -20 -2 -17 -67 -11 -84 8 -13 14 -17 39 -17 109 l0 91 -35 4 -35 4 0 -112z"/>
 <path d="M3158 8646 c-21 -8 -50 -21 -64 -31 -21 -13 -24 -19 -13 -26 24 -15 58 -10 79 11 23 23 58 26 84 7 27 -20 13 -54 -27 -62 -18 -4 -53 -16 -79 -27 -47 -20 -65 -48 -52 -83 21 -53 182 -62 216 -11 18 26 8 34 -29 24 -21 -6 -56 -11 -78 -12 -36 -1 -40 1 -40 23 0 22 7 26 68 41 85 21 102 37 98 92 -1 20 -54 54 -96 62 -16 3 -47 -1 -67 -8z"/>
 <path d="M3443 8648 c-28 -9 -33 -16 -39 -55 -4 -25 -4 -69 0 -98 5 -47 4 -54 -13 -60 -27 -8 -35 -35 -11 -35 15 0 20 -7 20 -28 0 -23 7 -32 35 -45 20 -9 37 -17 39 -17 1 0 2 19 2 42 -1 39 2 43 26 48 31 6 26 25 -7 31 -18 4 -20 12 -20 99 l0 95 28 -2 c22 -2 27 2 23 13 -3 9 -6 18 -6 20 0 7 -44 2 -77 -8z"/>
 <path d="M3580 8551 c0 -58 -3 -117 -7 -129 -5 -23 -4 -24 40 -21 26 2 49 0 53 -4 10 -10 66 -9 82 2 16 10 -1 25 -38 34 -43 10 -64 33 -65 68 -1 19 -2 59 -3 90 -2 55 -3 57 -32 61 l-30 5 0 -106z"/>
 <path d="M3823 8641 l-43 -20 0 -95 c0 -52 -3 -101 -6 -110 -5 -13 2 -16 35 -16 l41 0 0 105 c0 102 1 106 25 117 59 27 95 -47 81 -168 l-6 -54 41 0 c38 0 41 2 35 23 -3 12 -6 68 -6 125 l0 102 -42 -1 c-24 -1 -59 1 -78 5 -25 5 -47 1 -77 -13z"/>
 <path d="M4462 8643 c-59 -29 -75 -59 -69 -132 7 -87 32 -113 116 -119 56 -4 62 -2 89 25 26 25 51 97 39 110 -3 2 -42 7 -88 11 -76 6 -84 9 -87 29 -4 24 29 63 53 63 8 0 24 -9 35 -20 20 -20 45 -25 74 -14 23 9 12 21 -41 44 -55 24 -77 25 -121 3z m106 -165 c-2 -23 -11 -37 -29 -47 -24 -13 -29 -13 -53 2 -18 12 -26 26 -26 47 0 30 1 30 56 30 l55 0 -3 -32z"/>
 <path d="M4700 8544 c0 -62 -3 -119 -6 -128 -5 -13 2 -16 35 -16 23 0 41 5 41 11 0 5 10 3 22 -5 12 -9 41 -16 63 -16 22 0 51 7 63 16 21 14 22 23 22 128 l0 114 -30 4 -30 5 -1 -94 c-1 -51 -3 -97 -4 -103 -1 -5 -3 -14 -4 -20 -2 -17 -67 -11 -84 8 -13 14 -17 39 -17 109 l0 91 -35 4 -35 4 0 -112z"/>
 <path d="M5099 8652 c-45 -21 -72 -54 -78 -95 -16 -108 25 -172 108 -165 25 3 53 6 61 9 12 3 15 -6 15 -48 l-1 -53 38 0 38 0 0 175 0 176 -47 -2 c-27 -1 -64 1 -83 4 -19 4 -42 3 -51 -1z m86 -47 c21 -20 25 -34 25 -83 0 -68 -20 -95 -72 -95 -41 0 -58 25 -58 85 0 100 53 146 105 93z"/>
 <path d="M5420 8641 c-58 -31 -73 -54 -73 -114 0 -29 6 -63 12 -76 41 -76 194 -82 240 -9 7 11 15 41 18 68 5 42 2 53 -21 83 -29 38 -80 67 -118 67 -12 -1 -39 -9 -58 -19z m105 -36 c21 -20 25 -34 25 -84 0 -65 -13 -86 -57 -97 -17 -5 -33 0 -51 13 -23 17 -27 29 -30 77 -3 51 0 59 27 86 36 36 54 38 86 5z"/>
 <path d="M5960 8550 c0 -104 -1 -107 -25 -118 -29 -14 -33 -32 -6 -32 21 0 31 -19 31 -55 0 -32 27 -45 90 -45 59 0 64 16 10 34 -19 6 -35 17 -34 24 1 6 2 19 3 27 0 9 11 15 26 15 35 0 33 28 -2 32 l-28 3 3 106 4 107 -36 4 -36 4 0 -106z"/>
 <path d="M6163 8641 l-43 -20 0 -95 c0 -52 -3 -101 -6 -110 -5 -13 2 -16 35 -16 l41 0 0 105 c0 102 1 106 25 117 59 27 95 -47 81 -168 l-6 -54 41 0 c38 0 41 2 35 23 -3 12 -6 68 -6 125 l0 102 -42 -1 c-24 -1 -59 1 -78 5 -25 5 -47 1 -77 -13z"/>
 <path d="M6493 8648 c-28 -9 -33 -16 -39 -55 -4 -25 -4 -69 0 -98 5 -47 4 -54 -13 -60 -27 -8 -35 -35 -11 -35 15 0 20 -7 20 -28 0 -23 7 -32 35 -45 20 -9 37 -17 39 -17 1 0 2 19 2 42 -1 39 2 43 26 48 31 6 26 25 -7 31 -18 4 -20 12 -20 99 l0 95 28 -2 c22 -2 27 2 23 13 -3 9 -6 18 -6 20 0 7 -44 2 -77 -8z"/>
 <path d="M6673 8641 l-43 -20 0 -95 c0 -52 -3 -101 -6 -110 -5 -13 2 -16 35 -16 l41 0 0 105 c0 102 1 106 25 117 59 27 95 -47 81 -168 l-6 -54 41 0 c38 0 41 2 35 23 -3 12 -6 68 -6 125 l0 102 -42 -1 c-24 -1 -59 1 -78 5 -25 5 -47 1 -77 -13z"/>
 <path d="M6960 8551 c0 -58 -3 -117 -7 -129 -5 -22 -3 -24 38 -22 24 2 51 -1 61 -4 25 -11 73 -3 73 12 0 8 -17 20 -39 27 -50 17 -60 28 -61 68 -1 17 -2 57 -3 88 -2 55 -3 57 -32 61 l-30 5 0 -106z"/>
 <path d="M7220 8641 c-58 -31 -73 -54 -73 -114 0 -29 6 -63 12 -76 41 -76 194 -82 240 -9 7 11 15 41 18 68 5 42 2 53 -21 83 -29 38 -80 67 -118 67 -12 -1 -39 -9 -58 -19z m105 -36 c21 -20 25 -34 25 -84 0 -65 -13 -86 -57 -97 -17 -5 -33 0 -51 13 -23 17 -27 29 -30 77 -3 51 0 59 27 86 36 36 54 38 86 5z"/>
 <path d="M1883 8082 c-7 -5 -15 -94 -23 -272 -8 -198 -15 -271 -26 -287 -20 -32 -17 -60 10 -108 25 -42 78 -85 129 -104 44 -17 137 -13 182 8 82 37 114 81 280 379 64 116 121 212 124 212 4 0 69 -109 146 -242 188 -328 228 -368 360 -368 76 0 117 14 170 61 72 64 75 76 75 411 0 284 -1 298 -19 308 -24 12 -161 13 -180 1 -12 -8 -15 -52 -16 -243 -1 -128 -5 -240 -11 -249 -25 -44 -94 -47 -131 -6 -11 12 -79 126 -152 252 -73 127 -139 236 -148 243 -26 19 -146 16 -171 -5 -12 -10 -80 -119 -152 -243 -72 -124 -146 -240 -165 -257 -42 -40 -77 -42 -112 -7 -21 21 -25 32 -20 66 3 22 12 47 21 57 13 15 16 48 16 203 0 184 0 186 -22 192 -32 8 -151 7 -165 -2z"/>
 <path d="M3513 8082 c-9 -5 -15 -99 -24 -322 -8 -227 -15 -323 -25 -344 -8 -16 -14 -46 -14 -68 l0 -38 130 0 130 0 0 386 c0 235 -4 383 -9 379 -5 -3 -12 -1 -16 5 -7 12 -154 13 -172 2z"/>
 <path d="M3890 8080 c-12 -7 -17 -57 -26 -262 -12 -251 -17 -294 -36 -282 -18 11 2 -78 28 -122 27 -47 100 -100 151 -110 67 -13 147 0 189 30 61 45 102 104 242 354 l130 233 80 -138 c43 -76 109 -190 146 -255 72 -125 128 -191 181 -214 52 -22 160 -18 212 7 53 25 106 86 121 138 8 25 12 137 12 328 l0 291 -22 6 c-35 9 -161 7 -177 -3 -12 -8 -15 -53 -16 -243 -1 -128 -5 -240 -11 -249 -25 -44 -94 -47 -132 -6 -11 12 -79 126 -152 252 -72 127 -139 236 -148 243 -9 7 -46 12 -88 12 -89 0 -73 19 -248 -282 -70 -120 -141 -229 -157 -243 -37 -30 -68 -32 -103 -4 -32 25 -35 70 -6 117 18 29 20 50 20 216 0 182 0 184 -22 190 -36 9 -151 7 -168 -4z"/>
 <path d="M5650 8081 c-75 -23 -114 -58 -155 -141 -24 -48 -29 -71 -35 -195 -5 -77 -12 -149 -16 -159 -7 -19 -8 -19 -16 0 -5 12 -7 -1 -3 -35 8 -96 97 -200 195 -230 25 -7 163 -11 414 -11 l376 0 0 68 0 67 -313 0 -312 0 -47 27 c-73 44 -106 115 -77 169 5 11 14 17 20 14 5 -4 9 38 9 107 1 123 8 147 56 179 27 18 50 19 347 19 l317 0 0 55 c0 43 -4 56 -19 65 -23 12 -702 13 -741 1z"/>
 <path d="M6715 8071 c-48 -22 -93 -71 -126 -137 -22 -46 -34 -139 -38 -306 -1 -15 -9 -34 -18 -43 -14 -15 -15 -23 -4 -64 23 -88 110 -176 199 -201 22 -6 176 -10 376 -10 280 0 350 3 396 16 78 22 147 76 182 143 28 53 28 55 28 243 l0 190 -72 75 c-113 118 -90 113 -518 113 -332 0 -369 -2 -405 -19z m685 -134 c23 -11 30 -22 60 -87 6 -14 18 -37 26 -52 10 -19 16 -61 17 -126 2 -90 0 -101 -23 -135 -15 -22 -46 -48 -74 -62 -49 -24 -55 -25 -281 -25 -228 0 -232 0 -283 26 -90 45 -123 121 -83 189 14 25 21 53 21 91 0 82 18 140 52 169 l30 25 256 0 c186 0 264 -4 282 -13z"/>
 <path d="M1899 6764 c-28 -68 -21 -241 35 -994 122 -1611 238 -3047 275 -3415 20 -193 30 -234 97 -400 29 -72 79 -142 149 -204 21 -20 55 -50 74 -68 40 -37 227 -116 316 -133 60 -11 90 -11 112 3 6 4 13 3 15 -2 1 -5 21 -6 42 -2 21 3 37 9 35 13 -2 4 21 23 51 43 63 40 62 42 -5 16 -28 -10 -71 -22 -96 -26 -48 -7 -189 10 -223 28 -18 9 -17 11 14 37 l34 28 -57 32 c-31 17 -60 36 -63 42 -3 5 22 35 55 66 56 52 61 61 61 99 0 37 -6 47 -56 95 -75 71 -136 158 -185 265 -56 119 -112 292 -135 412 -3 14 -7 28 -9 32 -6 9 -40 408 -125 1489 -39 492 -77 976 -85 1075 -8 99 -24 297 -35 440 -11 143 -27 341 -35 440 -9 99 -18 225 -21 280 -3 61 -11 109 -20 123 -8 12 -57 66 -109 119 l-94 96 -12 -29z"/>
 <path d="M2518 6656 c-88 -24 -128 -70 -128 -150 0 -46 19 -63 80 -71 27 -4 53 -13 58 -20 10 -18 144 -24 165 -7 7 6 17 9 20 5 4 -3 7 -1 7 5 0 9 131 13 518 14 284 1 484 4 445 5 -40 2 -73 7 -73 11 0 4 7 16 15 26 47 62 -21 163 -123 185 -77 16 -921 14 -984 -3z"/>
 <path d="M6194 6611 c-412 -6 -443 -7 -462 -25 -30 -26 -35 -63 -17 -129 8 -32 13 -63 9 -68 -3 -5 212 -9 541 -9 349 0 553 -4 565 -10 11 -6 26 -34 35 -63 16 -51 13 -101 -114 -1822 -72 -973 -136 -1827 -143 -1898 l-12 -127 -38 -6 c-21 -4 -41 -10 -43 -14 -3 -4 33 -58 80 -119 46 -61 86 -120 90 -131 9 -28 -14 -64 -62 -99 -24 -17 -43 -35 -43 -41 0 -17 47 -41 81 -42 22 -1 36 5 43 17 6 10 23 32 37 49 113 133 174 320 150 458 -6 35 -11 102 -11 148 0 63 175 2581 205 2950 3 36 14 196 25 355 11 160 22 310 25 335 18 161 17 204 -4 238 -12 18 -33 38 -49 44 -34 14 -304 16 -888 9z"/>
 <path d="M4568 6421 c-74 -24 -115 -50 -172 -111 -54 -58 -58 -65 -164 -355 -321 -877 -1186 -3182 -1230 -3278 -36 -79 -65 -107 -112 -107 -27 0 -26 -28 3 -71 34 -51 85 -82 125 -75 28 4 149 69 162 86 3 4 20 15 38 24 47 24 85 82 122 188 52 147 170 464 428 1148 288 765 566 1506 634 1690 80 217 178 429 220 473 42 44 53 44 129 -4 86 -55 138 -33 159 68 17 80 1 125 -74 203 -34 36 -75 82 -90 103 -25 34 -31 37 -74 36 -26 0 -72 -8 -104 -18z"/>
 <path d="M5580 6425 c0 -7 61 -37 66 -33 2 3 -12 12 -31 21 -19 9 -35 15 -35 12z"/>
 <path d="M4686 5669 c-24 -19 -76 -90 -76 -104 0 -2 13 -11 29 -20 25 -12 32 -25 45 -84 9 -39 16 -94 16 -123 0 -56 14 -99 103 -318 30 -74 231 -614 445 -1200 503 -1372 474 -1295 542 -1438 39 -80 64 -150 76 -205 18 -92 84 -287 122 -362 59 -119 164 -225 276 -282 123 -62 200 -77 228 -45 35 39 37 55 17 112 -32 91 -27 115 36 176 30 30 55 58 55 62 0 12 -57 63 -115 102 -102 69 -222 193 -345 355 -121 160 -166 261 -468 1065 -517 1372 -642 1701 -667 1753 -31 62 -77 114 -113 128 -35 13 -52 69 -67 213 -14 142 -30 194 -66 220 -31 21 -41 20 -73 -5z"/>
 </g>
<g id="layer104" fill="#98aaca" stroke="none">
 <path d="M4100 8740 c0 -5 8 -10 18 -10 10 0 28 -7 40 -16 18 -12 22 -12 22 -2 0 8 -5 19 -12 26 -14 14 -68 16 -68 2z"/>
 <path d="M2229 8630 l-24 -19 30 10 c36 13 85 -2 85 -26 0 -9 9 -15 24 -15 33 0 42 17 14 26 -13 4 -34 15 -47 25 -30 24 -53 24 -82 -1z"/>
 <path d="M2538 8639 c-26 -15 -23 -32 3 -19 24 14 61 6 83 -16 14 -14 16 -14 16 0 0 34 -65 57 -102 35z"/>
 <path d="M3864 8635 c-18 -15 -18 -15 6 -10 14 4 39 1 55 -5 26 -10 28 -9 15 3 -24 24 -54 28 -76 12z"/>
 <path d="M4484 8635 c-18 -13 -16 -14 17 -8 28 4 40 1 55 -16 14 -14 27 -18 43 -14 21 5 18 8 -24 29 -54 28 -65 29 -91 9z"/>
 <path d="M5114 8635 c-18 -15 -18 -15 7 -9 16 3 41 -1 60 -11 l34 -16 -28 25 c-32 30 -46 32 -73 11z"/>
 <path d="M5448 8639 c-26 -15 -23 -32 3 -19 24 14 61 6 83 -16 14 -14 16 -14 16 0 0 34 -65 57 -102 35z"/>
 <path d="M6204 8635 c-18 -15 -18 -15 6 -10 14 4 39 1 55 -5 26 -10 28 -9 15 3 -24 24 -54 28 -76 12z"/>
 <path d="M6714 8635 c-18 -15 -18 -15 6 -10 14 4 39 1 55 -5 26 -10 28 -9 15 3 -24 24 -54 28 -76 12z"/>
 <path d="M7248 8639 c-26 -15 -23 -32 3 -19 24 14 61 6 83 -16 14 -14 16 -14 16 0 0 34 -65 57 -102 35z"/>
 <path d="M3155 8626 c-11 -7 -33 -17 -50 -21 l-30 -8 34 -9 c29 -8 35 -6 49 13 12 18 22 21 58 16 43 -4 59 5 28 17 -27 10 -69 7 -89 -8z"/>
 <path d="M3228 8531 c-51 -14 -98 -41 -72 -41 27 0 131 33 144 45 19 19 6 19 -72 -4z"/>
 <path d="M4465 8520 c-4 -6 17 -10 57 -10 44 0 59 3 48 10 -20 13 -97 13 -105 0z"/>
 <path d="M2459 8452 c35 -66 141 -86 194 -36 37 34 30 39 -18 14 -51 -26 -84 -25 -126 3 -61 41 -62 42 -50 19z"/>
 <path d="M5369 8452 c35 -66 141 -86 194 -36 37 34 30 39 -18 14 -51 -26 -84 -25 -126 3 -61 41 -62 42 -50 19z"/>
 <path d="M7169 8452 c35 -66 141 -86 194 -36 37 34 30 39 -18 14 -51 -26 -84 -25 -126 3 -61 41 -62 42 -50 19z"/>
 <path d="M2160 8446 c0 -8 12 -24 26 -35 33 -26 118 -29 152 -5 36 25 25 34 -20 18 -50 -18 -88 -13 -129 17 -23 16 -29 17 -29 5z"/>
 <path d="M4420 8441 c29 -56 118 -69 167 -26 31 27 20 33 -23 10 -41 -21 -66 -19 -108 10 -44 30 -50 31 -36 6z"/>
 <path d="M5040 8443 c0 -5 10 -19 23 -31 31 -29 97 -30 121 -3 18 19 17 19 -16 9 -32 -10 -55 -4 -120 30 -5 2 -8 0 -8 -5z"/>
 <path d="M3100 8432 c0 -40 141 -60 173 -24 15 16 11 17 -61 17 -42 0 -85 4 -94 9 -11 5 -18 4 -18 -2z"/>
 <path d="M2777 8424 c-15 -16 -5 -24 29 -24 24 0 34 4 32 13 -5 13 -50 22 -61 11z"/>
 <path d="M2850 8421 c0 -35 106 -43 136 -9 l19 21 -35 -8 c-45 -10 -80 -11 -102 -1 -11 5 -18 4 -18 -3z"/>
 <path d="M3587 8424 c-15 -16 -5 -24 29 -24 24 0 34 4 32 13 -5 13 -50 22 -61 11z"/>
 <path d="M3660 8410 c7 -13 21 -20 40 -20 44 0 45 18 3 29 -52 15 -55 14 -43 -9z"/>
 <path d="M3787 8423 c-15 -15 -5 -23 29 -23 31 0 35 2 24 15 -13 16 -42 20 -53 8z"/>
 <path d="M3967 8423 c-15 -14 -6 -23 23 -23 32 0 40 14 14 24 -20 8 -29 8 -37 -1z"/>
 <path d="M4095 8416 c-19 -15 -18 -15 18 -16 27 0 37 4 35 13 -7 18 -31 20 -53 3z"/>
 <path d="M4280 8415 c0 -11 11 -15 37 -15 35 0 36 1 17 15 -25 19 -54 19 -54 0z"/>
 <path d="M4707 8424 c-15 -16 -5 -24 29 -24 24 0 34 4 32 13 -5 13 -50 22 -61 11z"/>
 <path d="M4780 8421 c0 -35 106 -43 136 -9 l19 21 -35 -8 c-45 -10 -80 -11 -102 -1 -11 5 -18 4 -18 -3z"/>
 <path d="M6127 8423 c-15 -15 -5 -23 29 -23 31 0 35 2 24 15 -13 16 -42 20 -53 8z"/>
 <path d="M6307 8423 c-15 -14 -6 -23 23 -23 32 0 40 14 14 24 -20 8 -29 8 -37 -1z"/>
 <path d="M6637 8423 c-15 -15 -5 -23 29 -23 31 0 35 2 24 15 -13 16 -42 20 -53 8z"/>
 <path d="M6817 8423 c-15 -14 -6 -23 23 -23 32 0 40 14 14 24 -20 8 -29 8 -37 -1z"/>
 <path d="M6967 8424 c-15 -16 -5 -24 29 -24 24 0 34 4 32 13 -5 13 -50 22 -61 11z"/>
 <path d="M7040 8410 c7 -13 21 -20 40 -20 44 0 45 18 3 29 -52 15 -55 14 -43 -9z"/>
 <path d="M3375 8410 c-3 -5 3 -10 15 -10 12 0 18 5 15 10 -3 6 -10 10 -15 10 -5 0 -12 -4 -15 -10z"/>
 <path d="M3475 8410 c-4 -6 5 -10 20 -10 15 0 24 4 20 10 -3 6 -12 10 -20 10 -8 0 -17 -4 -20 -10z"/>
 <path d="M5920 8410 c0 -5 9 -10 21 -10 11 0 17 5 14 10 -3 6 -13 10 -21 10 -8 0 -14 -4 -14 -10z"/>
 <path d="M6025 8410 c-4 -6 7 -10 25 -10 18 0 29 4 25 10 -3 6 -15 10 -25 10 -10 0 -22 -4 -25 -10z"/>
 <path d="M6425 8410 c-3 -5 3 -10 15 -10 12 0 18 5 15 10 -3 6 -10 10 -15 10 -5 0 -12 -4 -15 -10z"/>
 <path d="M6525 8410 c-4 -6 5 -10 20 -10 15 0 24 4 20 10 -3 6 -12 10 -20 10 -8 0 -17 -4 -20 -10z"/>
 <path d="M3410 8350 c0 -14 48 -35 58 -26 8 9 -26 36 -45 36 -7 0 -13 -5 -13 -10z"/>
 <path d="M6460 8350 c0 -14 48 -35 58 -26 8 9 -26 36 -45 36 -7 0 -13 -5 -13 -10z"/>
 <path d="M5970 8331 c0 -15 43 -31 80 -31 43 0 45 17 2 23 -20 3 -47 9 -59 13 -15 4 -23 2 -23 -5z"/>
 <path d="M5217 8323 c-15 -15 -5 -23 29 -23 31 0 35 2 24 15 -13 16 -42 20 -53 8z"/>
 <path d="M5755 8025 c-45 -16 -85 -56 -85 -86 0 -31 24 -32 65 -5 l38 26 319 0 c296 0 319 1 316 17 -2 10 -18 28 -37 40 -33 23 -39 23 -305 23 -207 -1 -280 -4 -311 -15z"/>
 <path d="M6856 8020 c-63 -19 -106 -89 -75 -123 9 -9 19 -5 45 21 l33 33 269 -3 c240 -3 272 -5 289 -20 15 -14 22 -15 31 -6 28 28 -2 75 -61 97 -34 13 -488 13 -531 1z"/>
 <path d="M2505 7936 c-13 -13 -27 -37 -31 -53 -4 -15 -26 -57 -49 -93 -23 -36 -70 -111 -104 -167 -74 -121 -136 -194 -187 -218 -48 -22 -124 -17 -185 14 -40 20 -49 22 -70 10 -13 -7 -28 -12 -32 -11 -18 5 27 -48 61 -71 53 -37 86 -47 150 -47 132 1 186 57 368 384 l133 239 18 -32 c35 -63 38 -64 41 -15 5 80 -59 114 -113 60z"/>
 <path d="M4517 7942 c-9 -10 -24 -35 -33 -57 -24 -58 -192 -329 -244 -393 -84 -104 -176 -129 -275 -76 -43 22 -52 24 -74 13 -14 -7 -30 -12 -34 -11 -20 5 30 -51 70 -77 54 -36 93 -45 171 -39 44 3 68 11 99 33 67 48 91 86 316 489 l55 98 24 -42 c20 -32 27 -38 32 -25 12 31 6 72 -12 88 -24 22 -75 22 -95 -1z"/>
 <path d="M7572 7461 c-79 -59 -108 -63 -497 -59 l-340 3 -62 34 c-56 32 -64 34 -87 22 l-25 -14 21 -30 c25 -35 98 -83 148 -97 20 -6 183 -10 374 -10 383 0 418 5 501 68 26 21 58 55 71 77 l23 40 -37 3 c-30 2 -47 -5 -90 -37z"/>
 <path d="M2857 7456 c-8 -8 -18 -12 -23 -8 -22 20 39 -58 68 -85 45 -44 96 -63 168 -63 71 0 112 15 164 60 38 34 72 87 62 98 -3 3 -6 0 -6 -5 0 -8 -8 -8 -28 -1 -24 9 -34 7 -75 -22 -37 -27 -59 -35 -105 -38 -61 -4 -102 9 -178 58 -28 18 -34 19 -47 6z"/>
 <path d="M4863 7458 l-22 -11 31 -43 c53 -74 99 -98 189 -103 95 -4 150 18 204 82 39 46 40 58 4 71 -20 7 -34 2 -73 -25 -43 -31 -54 -34 -120 -34 -67 0 -77 3 -129 38 -31 20 -58 37 -59 36 -2 0 -13 -5 -25 -11z"/>
 <path d="M5487 7459 c-9 -5 -23 -7 -29 -3 -32 20 41 -63 79 -90 77 -54 79 -54 491 -55 l382 -1 0 30 c0 16 -3 29 -7 28 -5 -1 -22 6 -40 15 -28 15 -71 17 -372 17 l-340 0 -67 35 c-74 39 -72 38 -97 24z"/>
 <path d="M3492 7370 c-73 -53 -61 -61 86 -58 l127 3 3 28 c2 15 0 26 -5 25 -4 -1 -22 6 -40 15 -52 28 -123 22 -171 -13z"/>
 <path d="M1891 6681 c-18 -32 -14 -186 4 -201 9 -7 13 -15 11 -18 -3 -2 -1 -13 5 -24 12 -23 9 12 179 -2138 110 -1409 143 -1790 165 -1905 2 -11 6 -35 9 -52 63 -337 222 -629 380 -698 32 -14 60 -24 61 -23 1 2 -2 17 -7 35 -5 21 -25 44 -57 67 -49 36 -66 60 -56 77 3 4 36 18 74 29 65 19 101 43 101 68 0 6 -44 55 -98 109 -156 156 -226 290 -291 548 -45 178 -43 163 -151 1525 -141 1786 -191 2390 -205 2445 -14 57 -78 164 -103 173 -6 2 -15 -6 -21 -17z"/>
 <path d="M2669 6576 c-2 -2 -43 -6 -91 -9 -117 -6 -161 -34 -125 -79 6 -9 29 -21 49 -27 20 -7 42 -19 48 -27 7 -7 25 -14 41 -14 15 0 40 -5 54 -12 21 -10 31 -9 55 5 25 15 74 17 462 18 238 0 427 3 420 6 -10 4 -10 9 3 23 25 28 16 72 -18 88 -16 8 -76 17 -135 22 -109 8 -755 14 -763 6z m685 -115 c3 -5 15 -7 25 -4 11 3 28 0 38 -6 13 -7 -89 -10 -364 -11 -328 0 -383 2 -383 15 0 12 50 14 339 15 199 0 342 -3 345 -9z"/>
 <path d="M6805 6510 c-55 -4 -306 -8 -557 -9 -444 -1 -459 -2 -478 -21 -21 -21 -22 -29 -11 -70 l7 -25 531 4 c371 2 537 0 551 -8 26 -14 43 -67 41 -128 -2 -50 -97 -1426 -124 -1783 -9 -113 -40 -554 -70 -980 -31 -426 -60 -791 -65 -810 -5 -19 -14 -79 -21 -132 -13 -94 -14 -98 -41 -103 -15 -4 -28 -12 -28 -18 1 -7 35 -50 76 -97 41 -47 85 -102 97 -122 12 -21 28 -38 35 -38 27 0 81 164 82 250 0 19 -13 75 -30 123 -23 69 -30 106 -30 168 0 44 56 866 125 1827 69 961 125 1775 125 1808 0 34 7 81 15 105 26 72 10 76 -230 59z"/>
 <path d="M4543 6410 c-41 -18 -62 -52 -55 -88 2 -7 -4 -15 -12 -18 -9 -3 -14 -10 -11 -14 3 -4 -14 -36 -38 -71 -35 -53 -82 -167 -144 -349 -38 -110 -113 -315 -216 -585 -68 -181 -218 -577 -332 -880 -422 -1119 -513 -1361 -526 -1390 -7 -16 -13 -33 -13 -37 -1 -3 -12 -21 -26 -40 -14 -18 -24 -36 -22 -40 1 -5 -2 -8 -7 -8 -9 0 -84 -131 -146 -254 -19 -38 -42 -67 -62 -79 -41 -23 -41 -40 -4 -78 38 -37 74 -37 132 0 89 56 144 145 202 326 32 103 162 450 792 2120 141 374 277 736 302 803 66 182 135 313 188 360 73 64 120 64 193 -2 74 -67 124 -63 138 9 9 50 -10 89 -81 165 -33 36 -75 89 -94 118 -31 49 -35 52 -75 51 -22 0 -60 -9 -83 -19z"/>
 <path d="M1892 6390 c0 -19 2 -27 5 -17 2 9 2 25 0 35 -3 9 -5 1 -5 -18z"/>
 <path d="M1902 6250 c0 -19 2 -27 5 -17 2 9 2 25 0 35 -3 9 -5 1 -5 -18z"/>
 <path d="M1912 6120 c0 -19 2 -27 5 -17 2 9 2 25 0 35 -3 9 -5 1 -5 -18z"/>
 <path d="M1932 5850 c0 -19 2 -27 5 -17 2 9 2 25 0 35 -3 9 -5 1 -5 -18z"/>
 <path d="M1942 5720 c0 -19 2 -27 5 -17 2 9 2 25 0 35 -3 9 -5 1 -5 -18z"/>
 <path d="M4689 5611 c-23 -18 -23 -19 -7 -57 24 -56 29 -86 37 -205 6 -91 13 -120 49 -210 23 -57 70 -183 106 -279 98 -269 760 -2024 831 -2205 35 -88 86 -210 113 -270 27 -61 73 -184 101 -275 120 -382 188 -498 334 -565 70 -33 89 -32 126 10 34 39 34 53 0 134 -11 24 -19 49 -19 56 0 19 39 103 50 107 22 7 -9 62 -81 140 -114 124 -283 323 -351 413 -89 118 -167 291 -353 785 -797 2119 -709 1890 -755 1949 -62 78 -68 98 -80 247 -11 151 -22 205 -46 229 -20 19 -27 19 -55 -4z"/>
 <path d="M2769 1592 c27 -19 139 -35 189 -26 l47 8 -65 6 c-36 4 -92 10 -125 14 -41 5 -55 4 -46 -2z"/>
 </g>
<g id="layer105" fill="#d0d8e7" stroke="none">
 <path d="M4110 8740 c-12 -8 -9 -10 13 -10 16 0 26 4 22 10 -8 12 -16 12 -35 0z"/>
 <path d="M2240 8636 c0 -2 15 -6 34 -8 19 -2 32 0 30 4 -5 8 -64 12 -64 4z"/>
 <path d="M2551 8636 c2 -2 20 -6 39 -10 25 -4 31 -3 20 4 -14 9 -69 15 -59 6z"/>
 <path d="M3180 8630 c-11 -7 -5 -10 23 -10 23 0 36 4 32 10 -8 13 -35 13 -55 0z"/>
 <path d="M4515 8633 c17 -2 37 -13 45 -23 11 -13 21 -16 35 -10 19 8 19 9 -1 9 -12 1 -27 8 -34 16 -7 8 -26 14 -44 14 l-31 -2 30 -4z"/>
 <path d="M5461 8636 c2 -2 20 -6 39 -10 25 -4 31 -3 20 4 -14 9 -69 15 -59 6z"/>
 <path d="M7261 8636 c2 -2 20 -6 39 -10 25 -4 31 -3 20 4 -14 9 -69 15 -59 6z"/>
 <path d="M2320 8590 c0 -5 6 -10 14 -10 8 0 18 5 21 10 3 6 -3 10 -14 10 -12 0 -21 -4 -21 -10z"/>
 <path d="M3090 8596 c0 -8 51 -13 56 -5 3 5 -9 9 -25 9 -17 0 -31 -2 -31 -4z"/>
 <path d="M3228 8523 c-32 -8 -58 -19 -58 -23 0 -4 27 -1 60 7 33 9 60 19 60 24 0 5 -1 9 -2 8 -2 -1 -29 -8 -60 -16z"/>
 <path d="M4490 8520 c-20 -6 -14 -8 25 -8 37 -1 45 2 30 8 -24 10 -23 10 -55 0z"/>
 <path d="M2200 8409 c20 -17 34 -20 73 -16 26 2 53 9 58 14 7 7 -6 9 -40 5 -27 -2 -65 1 -83 7 l-33 11 25 -21z"/>
 <path d="M2480 8426 c0 -3 13 -12 30 -21 35 -18 87 -19 118 -2 20 12 15 13 -40 12 -35 0 -73 4 -85 8 -13 5 -23 6 -23 3z"/>
 <path d="M3126 8409 c16 -18 28 -20 77 -17 31 2 62 9 68 15 6 6 -8 8 -45 5 -30 -2 -69 1 -87 7 l-32 11 19 -21z"/>
 <path d="M4450 8411 c28 -23 83 -27 117 -8 19 10 14 12 -40 12 -34 0 -71 4 -82 9 -15 6 -14 3 5 -13z"/>
 <path d="M5069 8411 c24 -22 66 -27 90 -12 9 6 0 10 -30 13 -24 3 -53 8 -64 12 -17 7 -17 5 4 -13z"/>
 <path d="M5390 8426 c0 -3 13 -12 30 -21 35 -18 87 -19 118 -2 20 12 15 13 -40 12 -35 0 -73 4 -85 8 -13 5 -23 6 -23 3z"/>
 <path d="M7190 8426 c0 -3 13 -12 30 -21 35 -18 87 -19 118 -2 20 12 15 13 -40 12 -35 0 -73 4 -85 8 -13 5 -23 6 -23 3z"/>
 <path d="M2775 8410 c-4 -6 7 -10 24 -10 17 0 31 5 31 10 0 6 -11 10 -24 10 -14 0 -28 -4 -31 -10z"/>
 <path d="M3585 8410 c-4 -6 7 -10 24 -10 17 0 31 5 31 10 0 6 -11 10 -24 10 -14 0 -28 -4 -31 -10z"/>
 <path d="M3670 8405 c13 -16 50 -21 50 -6 0 5 -10 11 -22 15 -36 9 -41 7 -28 -9z"/>
 <path d="M3785 8410 c-4 -6 7 -10 27 -10 25 0 29 3 18 10 -19 13 -37 13 -45 0z"/>
 <path d="M3965 8410 c-4 -6 7 -10 27 -10 25 0 29 3 18 10 -19 13 -37 13 -45 0z"/>
 <path d="M4095 8410 c-4 -6 7 -10 25 -10 18 0 29 4 25 10 -3 6 -15 10 -25 10 -10 0 -22 -4 -25 -10z"/>
 <path d="M4285 8410 c-4 -6 7 -10 27 -10 25 0 29 3 18 10 -19 13 -37 13 -45 0z"/>
 <path d="M4705 8410 c-4 -6 7 -10 24 -10 17 0 31 5 31 10 0 6 -11 10 -24 10 -14 0 -28 -4 -31 -10z"/>
 <path d="M6125 8410 c-4 -6 7 -10 27 -10 25 0 29 3 18 10 -19 13 -37 13 -45 0z"/>
 <path d="M6305 8410 c-4 -6 7 -10 27 -10 25 0 29 3 18 10 -19 13 -37 13 -45 0z"/>
 <path d="M6635 8410 c-4 -6 7 -10 27 -10 25 0 29 3 18 10 -19 13 -37 13 -45 0z"/>
 <path d="M6815 8410 c-4 -6 7 -10 27 -10 25 0 29 3 18 10 -19 13 -37 13 -45 0z"/>
 <path d="M6965 8410 c-4 -6 7 -10 24 -10 17 0 31 5 31 10 0 6 -11 10 -24 10 -14 0 -28 -4 -31 -10z"/>
 <path d="M7050 8405 c13 -16 50 -21 50 -6 0 5 -10 11 -22 15 -36 9 -41 7 -28 -9z"/>
 <path d="M2885 8400 c8 -13 55 -13 75 0 11 7 2 10 -33 10 -30 0 -46 -4 -42 -10z"/>
 <path d="M4815 8400 c8 -13 55 -13 75 0 11 7 2 10 -33 10 -30 0 -46 -4 -42 -10z"/>
 <path d="M3434 8335 c11 -8 25 -15 30 -15 6 0 2 7 -8 15 -11 8 -25 15 -30 15 -6 0 -2 -7 8 -15z"/>
 <path d="M6484 8335 c11 -8 25 -15 30 -15 6 0 2 7 -8 15 -11 8 -25 15 -30 15 -6 0 -2 -7 8 -15z"/>
 <path d="M5994 8315 c11 -8 33 -15 50 -15 41 0 21 16 -29 23 -37 6 -38 5 -21 -8z"/>
 <path d="M5215 8310 c-4 -6 7 -10 27 -10 25 0 29 3 18 10 -19 13 -37 13 -45 0z"/>
 <path d="M5780 8018 c-41 -11 -80 -45 -80 -68 0 -27 10 -30 43 -9 30 18 54 19 351 19 l319 0 -19 21 c-42 47 -58 49 -326 48 -139 0 -269 -5 -288 -11z"/>
 <path d="M6865 8005 c-22 -8 -41 -15 -42 -15 -10 -1 -23 -45 -18 -60 6 -19 7 -19 34 1 26 19 39 20 292 17 145 -2 271 -5 279 -8 27 -9 17 32 -13 54 -27 20 -42 21 -260 23 -184 2 -240 0 -272 -12z"/>
 <path d="M2522 7928 c-7 -7 -12 -30 -12 -52 l1 -41 23 45 24 44 21 -34 21 -35 0 31 c0 35 -16 54 -45 54 -12 0 -26 -5 -33 -12z"/>
 <path d="M4525 7916 c-11 -16 -13 -30 -7 -47 9 -23 10 -23 29 16 20 37 21 38 32 17 14 -27 31 -29 31 -4 0 45 -59 57 -85 18z"/>
 <path d="M2280 7446 c-6 -8 -18 -12 -26 -9 -8 3 -41 -9 -73 -26 -48 -25 -70 -31 -123 -31 -36 0 -79 5 -97 11 -25 9 -38 8 -62 -3 l-30 -15 38 -26 c21 -14 51 -31 66 -36 41 -16 132 -13 175 4 38 17 99 70 134 118 20 28 19 38 -2 13z"/>
 <path d="M7558 7428 c-82 -41 -176 -50 -519 -45 -251 3 -301 7 -343 22 -39 14 -53 16 -68 6 -15 -10 -23 -9 -36 1 -9 7 -7 1 6 -13 13 -15 46 -39 75 -55 l52 -29 358 -3 c308 -3 367 -1 415 13 67 20 132 63 163 108 12 17 16 27 9 20 -8 -7 -21 -8 -34 -4 -15 6 -37 0 -78 -21z"/>
 <path d="M4285 7440 c-3 -5 -12 -7 -20 -4 -8 3 -42 -8 -76 -25 -49 -25 -75 -31 -124 -31 -34 0 -77 5 -94 11 -25 9 -38 9 -56 -1 -13 -7 -29 -9 -37 -5 -7 3 1 -6 17 -20 50 -44 104 -65 173 -65 72 0 114 16 161 62 34 33 76 88 67 88 -3 0 -7 -4 -11 -10z"/>
 <path d="M3175 7398 c-54 -22 -156 -26 -211 -10 -21 7 -37 6 -53 -2 l-22 -12 23 -22 c82 -76 251 -68 332 17 l26 28 -22 10 c-18 8 -35 6 -73 -9z"/>
 <path d="M5182 7398 c-47 -21 -152 -26 -209 -9 -23 7 -37 5 -51 -5 -11 -7 -21 -12 -24 -11 -2 1 8 -9 22 -21 40 -37 84 -52 155 -52 76 0 117 15 169 60 l38 33 -24 13 c-28 16 -24 17 -76 -8z"/>
 <path d="M5513 7387 c80 -73 68 -72 505 -75 420 -3 430 -2 358 45 -32 20 -45 21 -382 25 -305 4 -355 6 -399 22 -39 14 -53 16 -68 7 -14 -9 -23 -9 -35 0 -9 6 0 -5 21 -24z"/>
 <path d="M3488 7345 l-38 -35 125 0 c68 0 126 4 130 9 3 5 -10 21 -28 35 -28 21 -45 26 -93 26 -53 -1 -63 -4 -96 -35z"/>
 <path d="M1885 6641 c-4 -27 -2 -48 9 -69 8 -16 20 -49 26 -73 5 -24 75 -865 155 -1869 161 -2028 148 -1875 182 -2100 36 -245 69 -360 162 -568 64 -144 92 -192 136 -231 53 -46 64 -38 16 14 -22 24 -41 49 -41 54 0 18 30 32 91 42 74 12 109 27 109 46 0 7 -32 44 -71 81 -144 135 -218 260 -275 463 -71 254 -62 156 -299 3164 -36 457 -72 862 -80 901 -15 70 -72 172 -102 181 -6 2 -14 -12 -18 -36z"/>
 <path d="M2556 6549 c-105 -14 -128 -46 -56 -78 36 -16 46 -16 107 -4 99 21 824 14 868 -7 27 -14 -12 -15 -400 -20 -236 -3 -421 -7 -410 -8 11 -2 211 -3 444 -2 454 1 461 2 477 52 12 38 -23 58 -122 68 -111 12 -814 11 -908 -1z"/>
 <path d="M6900 6493 c-25 -2 -279 -4 -565 -5 -557 -3 -565 -4 -565 -53 0 -53 -30 -50 553 -47 l543 3 13 -28 c8 -15 16 -59 18 -98 3 -39 -51 -850 -121 -1835 -108 -1506 -129 -1775 -146 -1830 -11 -36 -24 -85 -28 -110 -6 -36 -12 -46 -30 -48 -12 -2 -22 -9 -22 -16 0 -7 32 -48 72 -92 40 -43 79 -87 87 -96 27 -31 37 -20 59 61 27 96 27 141 2 251 -11 47 -20 110 -20 141 0 30 56 845 125 1810 69 965 125 1795 123 1844 -1 50 1 100 4 113 4 12 6 22 5 22 -1 0 -16 3 -32 8 -17 4 -50 6 -75 5z"/>
 <path d="M4568 6420 c-13 -8 -16 -21 -12 -63 l6 -52 -66 -70 c-105 -112 -96 -91 -380 -850 -249 -666 -871 -2316 -918 -2435 -23 -58 -55 -127 -72 -155 -36 -59 -169 -237 -191 -255 -21 -17 -19 -36 7 -60 29 -27 64 -25 109 5 77 54 135 153 201 344 44 130 1088 2905 1145 3046 52 127 87 187 138 234 75 69 109 67 206 -9 70 -54 80 -58 103 -34 34 34 12 98 -60 175 -23 26 -63 79 -88 118 -42 64 -49 71 -78 71 -18 0 -41 -5 -50 -10z"/>
 <path d="M4700 5595 c-10 -12 -10 -25 -1 -58 17 -65 33 -175 36 -247 1 -51 11 -86 43 -160 23 -52 139 -354 258 -670 516 -1374 599 -1592 646 -1710 89 -221 128 -321 199 -510 198 -525 233 -599 304 -652 28 -21 65 -41 84 -44 28 -6 37 -2 60 22 33 34 31 55 -10 139 -31 64 -41 104 -30 120 17 24 33 94 26 116 -10 33 -139 207 -185 249 -13 11 -160 199 -194 246 -79 111 -156 300 -515 1251 -204 540 -405 1073 -447 1185 -60 159 -87 217 -125 269 -66 90 -72 108 -74 234 -3 121 -18 195 -45 220 -15 14 -18 14 -30 0z"/>
 </g>

</svg>