<!DOCTYPE svg PUBLIC "-//W3C//DTD SVG 20010904//EN" "http://www.w3.org/TR/2001/REC-SVG-20010904/DTD/svg10.dtd">
<svg version="1.0" xmlns="http://www.w3.org/2000/svg" width="90px" height="87px" viewBox="0 0 900 870" preserveAspectRatio="xMidYMid meet">
<g id="layer101" fill="#171f29" stroke="none">
 <path d="M0 435 l0 -435 450 0 450 0 0 435 0 435 -450 0 -450 0 0 -435z"/>
 </g>
<g id="layer102" fill="#1d2733" stroke="none">
 <path d="M0 435 l0 -435 450 0 450 0 0 435 0 435 -450 0 -450 0 0 -435z m247 -172 c-4 -3 -7 0 -7 7 0 7 3 10 7 7 3 -4 3 -10 0 -14z"/>
 </g>
<g id="layer103" fill="#232e3c" stroke="none">
 <path d="M0 435 l0 -435 450 0 450 0 0 435 0 435 -450 0 -450 0 0 -435z m308 358 c-21 -2 -57 -2 -80 0 -24 2 -7 4 37 4 44 0 63 -2 43 -4z m57 -13 c3 -5 4 -10 1 -10 -3 0 -8 5 -11 10 -3 6 -4 10 -1 10 3 0 8 -4 11 -10z m232 4 c-3 -3 -12 -4 -19 -1 -8 3 -5 6 6 6 11 1 17 -2 13 -5z m180 -1 c-4 -3 -10 -3 -14 0 -3 4 0 7 7 7 7 0 10 -3 7 -7z m30 -40 c-4 -3 -7 0 -7 7 0 7 3 10 7 7 3 -4 3 -10 0 -14z m0 -45 c-3 -8 -6 -5 -6 6 -1 11 2 17 5 13 3 -3 4 -12 1 -19z m-290 -35 c-4 -3 -7 0 -7 7 0 7 3 10 7 7 3 -4 3 -10 0 -14z m-300 -55 c-3 -7 -5 -2 -5 12 0 14 2 19 5 13 2 -7 2 -19 0 -25z m320 5 c-4 -3 -7 0 -7 7 0 7 3 10 7 7 3 -4 3 -10 0 -14z m10 -30 c-4 -3 -7 0 -7 7 0 7 3 10 7 7 3 -4 3 -10 0 -14z m250 -35 c-3 -8 -6 -5 -6 6 -1 11 2 17 5 13 3 -3 4 -12 1 -19z m-570 -55 c-3 -10 -5 -4 -5 12 0 17 2 24 5 18 2 -7 2 -21 0 -30z m350 10 c-4 -3 -7 0 -7 7 0 7 3 10 7 7 3 -4 3 -10 0 -14z m20 -50 c-4 -3 -7 0 -7 7 0 7 3 10 7 7 3 -4 3 -10 0 -14z m10 -30 c-4 -3 -7 0 -7 7 0 7 3 10 7 7 3 -4 3 -10 0 -14z m-370 -40 c-3 -10 -5 -4 -5 12 0 17 2 24 5 18 2 -7 2 -21 0 -30z m550 15 c-3 -8 -6 -5 -6 6 -1 11 2 17 5 13 3 -3 4 -12 1 -19z m-150 -55 c-4 -3 -7 0 -7 7 0 7 3 10 7 7 3 -4 3 -10 0 -14z m20 -50 c-4 -3 -7 0 -7 7 0 7 3 10 7 7 3 -4 3 -10 0 -14z m-410 -25 c-3 -7 -5 -2 -5 12 0 14 2 19 5 13 2 -7 2 -19 0 -25z m530 -45 c-3 -10 -5 -2 -5 17 0 19 2 27 5 18 2 -10 2 -26 0 -35z"/>
 </g>
<g id="layer104" fill="#2c394b" stroke="none">
 <path d="M0 435 l0 -435 450 0 450 0 0 435 0 435 -450 0 -450 0 0 -435z m370 344 c6 -11 9 -28 7 -37 -4 -13 -5 -12 -6 4 -2 35 -23 43 -127 47 l-99 3 107 2 c99 2 108 0 118 -19z m358 14 c-10 -2 -28 -2 -40 0 -13 2 -5 4 17 4 22 1 32 -1 23 -4z m-135 -10 c-7 -2 -19 -2 -25 0 -7 3 -2 5 12 5 14 0 19 -2 13 -5z m207 -8 c20 -25 6 -31 -17 -7 -14 14 -18 22 -9 22 8 0 19 -7 26 -15z m-307 -57 c16 -13 181 -433 175 -449 -2 -4 -41 93 -87 217 -81 214 -86 225 -115 233 -22 7 -25 9 -10 10 11 1 28 -5 37 -11z m314 -70 c-2 -18 -4 -6 -4 27 0 33 2 48 4 33 2 -15 2 -42 0 -60z m-590 -30 c-2 -18 -4 -6 -4 27 0 33 2 48 4 33 2 -15 2 -42 0 -60z m20 -203 c0 -47 0 -47 -7 15 -4 36 -8 85 -7 110 0 41 1 39 7 -15 4 -33 8 -82 7 -110z m560 78 c-2 -16 -4 -3 -4 27 0 30 2 43 4 28 2 -16 2 -40 0 -55z m-10 -150 c-2 -16 -4 -3 -4 27 0 30 2 43 4 28 2 -16 2 -40 0 -55z m-540 -60 c-2 -16 -4 -5 -4 22 0 28 2 40 4 28 2 -13 2 -35 0 -50z m530 -90 c-2 -16 -4 -3 -4 27 0 30 2 43 4 28 2 -16 2 -40 0 -55z"/>
 </g>
<g id="layer105" fill="#374960" stroke="none">
 <path d="M0 435 l0 -435 450 0 450 0 0 435 0 435 -450 0 -450 0 0 -435z m381 341 c8 -17 8 -29 0 -42 -9 -17 -10 -16 -11 7 0 15 -6 31 -13 37 -7 6 -60 13 -118 15 l-104 3 118 2 c115 2 118 2 128 -22z m424 4 c17 -19 17 -31 -2 -321 -18 -255 -23 -303 -38 -317 -16 -16 -17 -16 -6 3 10 19 41 438 41 558 0 81 -18 92 -150 84 -59 -3 -98 -1 -94 4 3 5 56 9 118 9 100 0 115 -2 131 -20z m-298 -62 c7 -5 17 -26 24 -46 7 -20 41 -111 77 -202 69 -177 79 -210 66 -210 -5 0 -44 94 -87 209 -43 115 -86 219 -94 231 -13 18 -22 21 -49 17 -39 -7 -44 0 -11 13 23 9 54 4 74 -12z m-280 -30 c0 -64 27 -354 33 -358 4 -3 2 -20 -5 -39 -10 -31 -13 -12 -28 165 -20 226 -20 244 -9 244 5 0 9 -6 9 -12z m184 -290 c-78 -214 -92 -246 -109 -260 -14 -12 -14 -11 0 12 9 14 46 109 83 213 37 103 70 185 73 183 2 -3 -19 -70 -47 -148z"/>
 </g>
<g id="layer106" fill="#feffff" stroke="none">
 <path d="M143 780 c-12 -5 -24 -17 -27 -27 -9 -30 40 -556 54 -583 29 -54 82 -66 117 -28 12 13 51 104 86 203 36 99 69 188 73 199 5 13 29 -41 85 -190 50 -135 85 -215 100 -226 29 -24 84 -23 108 1 24 24 27 45 46 358 12 187 13 258 5 273 -10 19 -18 20 -128 18 l-117 -3 0 -35 0 -35 83 -3 c45 -2 82 -6 82 -10 0 -4 -7 -97 -15 -207 -8 -110 -15 -211 -15 -224 0 -15 -4 -21 -9 -15 -5 5 -46 110 -92 233 -70 186 -88 225 -108 232 -45 18 -59 -5 -141 -229 -43 -117 -80 -215 -83 -218 -6 -7 -14 55 -27 216 -6 69 -13 146 -16 173 l-6 47 74 0 c76 0 98 9 98 41 0 38 -27 49 -118 48 -48 0 -97 -4 -109 -9z"/>
 </g>

</svg>