<!DOCTYPE svg PUBLIC "-//W3C//DTD SVG 20010904//EN" "http://www.w3.org/TR/2001/REC-SVG-20010904/DTD/svg10.dtd">
<svg version="1.0" xmlns="http://www.w3.org/2000/svg" width="90px" height="101px" viewBox="0 0 900 1010" preserveAspectRatio="xMidYMid meet">
<g id="layer101" fill="#394455" stroke="none">
 <path d="M0 505 l0 -505 450 0 450 0 0 505 0 505 -450 0 -450 0 0 -505z"/>
 </g>
<g id="layer102" fill="#404d61" stroke="none">
 <path d="M0 505 l0 -505 450 0 450 0 0 505 0 505 -450 0 -450 0 0 -505z m365 335 c3 -5 4 -10 1 -10 -3 0 -8 5 -11 10 -3 6 -4 10 -1 10 3 0 8 -4 11 -10z m232 3 c-4 -3 -10 -3 -14 0 -3 4 0 7 7 7 7 0 10 -3 7 -7z m198 -13 c3 -5 4 -10 1 -10 -3 0 -8 5 -11 10 -3 6 -4 10 -1 10 3 0 8 -4 11 -10z m-268 -137 c-4 -3 -7 0 -7 7 0 7 3 10 7 7 3 -4 3 -10 0 -14z m-310 -30 c-4 -3 -7 0 -7 7 0 7 3 10 7 7 3 -4 3 -10 0 -14z m340 -50 c-4 -3 -7 0 -7 7 0 7 3 10 7 7 3 -4 3 -10 0 -14z m-330 -65 c-3 -8 -6 -5 -6 6 -1 11 2 17 5 13 3 -3 4 -12 1 -19z m360 -15 c-4 -3 -7 0 -7 7 0 7 3 10 7 7 3 -4 3 -10 0 -14z m-350 -95 c-3 -7 -5 -2 -5 12 0 14 2 19 5 13 2 -7 2 -19 0 -25z m400 -35 c-4 -3 -7 0 -7 7 0 7 3 10 7 7 3 -4 3 -10 0 -14z m-390 -75 c-3 -8 -6 -5 -6 6 -1 11 2 17 5 13 3 -3 4 -12 1 -19z m420 -5 c-4 -3 -7 0 -7 7 0 7 3 10 7 7 3 -4 3 -10 0 -14z m110 -15 c-3 -8 -6 -5 -6 6 -1 11 2 17 5 13 3 -3 4 -12 1 -19z"/>
 </g>
<g id="layer103" fill="#454e5d" stroke="none">
 <path d="M0 505 l0 -505 450 0 450 0 0 505 0 505 -450 0 -450 0 0 -505z m302 348 c-23 -2 -61 -2 -85 0 -23 2 -4 4 43 4 47 0 66 -2 42 -4z m63 -13 c3 -5 4 -10 1 -10 -3 0 -8 5 -11 10 -3 6 -4 10 -1 10 3 0 8 -4 11 -10z m232 4 c-3 -3 -12 -4 -19 -1 -8 3 -5 6 6 6 11 1 17 -2 13 -5z m197 -10 c9 -8 16 -21 16 -27 0 -7 -5 -4 -11 5 -5 10 -17 22 -27 27 -9 6 -12 11 -5 11 6 0 19 -7 27 -16z m13 -86 c-3 -7 -5 -2 -5 12 0 14 2 19 5 13 2 -7 2 -19 0 -25z m-290 -25 c-4 -3 -7 0 -7 7 0 7 3 10 7 7 3 -4 3 -10 0 -14z m-300 -50 c-3 -10 -5 -4 -5 12 0 17 2 24 5 18 2 -7 2 -21 0 -30z m323 2 c0 -5 -5 -3 -10 5 -5 8 -10 20 -10 25 0 6 5 3 10 -5 5 -8 10 -19 10 -25z m7 -32 c-4 -3 -7 0 -7 7 0 7 3 10 7 7 3 -4 3 -10 0 -14z m10 -30 c-4 -3 -7 0 -7 7 0 7 3 10 7 7 3 -4 3 -10 0 -14z m240 -5 c-3 -8 -6 -5 -6 6 -1 11 2 17 5 13 3 -3 4 -12 1 -19z m-570 -55 c-3 -10 -5 -2 -5 17 0 19 2 27 5 18 2 -10 2 -26 0 -35z m350 10 c-4 -3 -7 0 -7 7 0 7 3 10 7 7 3 -4 3 -10 0 -14z m23 -48 c0 -5 -5 -3 -10 5 -5 8 -10 20 -10 25 0 6 5 3 10 -5 5 -8 10 -19 10 -25z m7 -32 c-4 -3 -7 0 -7 7 0 7 3 10 7 7 3 -4 3 -10 0 -14z m-370 -40 c-3 -10 -5 -2 -5 17 0 19 2 27 5 18 2 -10 2 -26 0 -35z m550 5 c-3 -7 -5 -2 -5 12 0 14 2 19 5 13 2 -7 2 -19 0 -25z m-160 -15 c-4 -3 -7 0 -7 7 0 7 3 10 7 7 3 -4 3 -10 0 -14z m23 -48 c0 -5 -5 -3 -10 5 -5 8 -10 20 -10 25 0 6 5 3 10 -5 5 -8 10 -19 10 -25z m7 -32 c-4 -3 -7 0 -7 7 0 7 3 10 7 7 3 -4 3 -10 0 -14z m-410 -25 c-3 -7 -5 -2 -5 12 0 14 2 19 5 13 2 -7 2 -19 0 -25z m420 -5 c-4 -3 -7 0 -7 7 0 7 3 10 7 7 3 -4 3 -10 0 -14z m110 -40 c-3 -10 -5 -2 -5 17 0 19 2 27 5 18 2 -10 2 -26 0 -35z"/>
 </g>
<g id="layer104" fill="#4a576e" stroke="none">
 <path d="M0 505 l0 -505 450 0 450 0 0 505 0 505 -450 0 -450 0 0 -505z m302 348 c-23 -2 -61 -2 -85 0 -23 2 -4 4 43 4 47 0 66 -2 42 -4z m63 -13 c3 -5 4 -10 1 -10 -3 0 -8 5 -11 10 -3 6 -4 10 -1 10 3 0 8 -4 11 -10z m232 4 c-3 -3 -12 -4 -19 -1 -8 3 -5 6 6 6 11 1 17 -2 13 -5z m197 -10 c9 -8 16 -21 16 -27 0 -7 -5 -4 -11 5 -5 10 -17 22 -27 27 -9 6 -12 11 -5 11 6 0 19 -7 27 -16z m13 -81 c-3 -10 -5 -4 -5 12 0 17 2 24 5 18 2 -7 2 -21 0 -30z m-287 -26 c0 -12 0 -11 -24 28 l-17 30 20 -24 c12 -13 21 -28 21 -34z m-303 -64 c-3 -10 -5 -2 -5 17 0 19 2 27 5 18 2 -10 2 -26 0 -35z m323 12 c0 -5 -5 -3 -10 5 -5 8 -10 20 -10 25 0 6 5 3 10 -5 5 -8 10 -19 10 -25z m7 -32 c-4 -3 -7 0 -7 7 0 7 3 10 7 7 3 -4 3 -10 0 -14z m10 -30 c-4 -3 -7 0 -7 7 0 7 3 10 7 7 3 -4 3 -10 0 -14z m240 -5 c-3 -8 -6 -5 -6 6 -1 11 2 17 5 13 3 -3 4 -12 1 -19z m-570 -55 c-3 -10 -5 -2 -5 17 0 19 2 27 5 18 2 -10 2 -26 0 -35z m350 10 c-4 -3 -7 0 -7 7 0 7 3 10 7 7 3 -4 3 -10 0 -14z m23 -48 c0 -5 -5 -3 -10 5 -5 8 -10 20 -10 25 0 6 5 3 10 -5 5 -8 10 -19 10 -25z m7 -32 c-4 -3 -7 0 -7 7 0 7 3 10 7 7 3 -4 3 -10 0 -14z m-370 -40 c-3 -10 -5 -2 -5 17 0 19 2 27 5 18 2 -10 2 -26 0 -35z m550 5 c-3 -7 -5 -2 -5 12 0 14 2 19 5 13 2 -7 2 -19 0 -25z m-160 -15 c-4 -3 -7 0 -7 7 0 7 3 10 7 7 3 -4 3 -10 0 -14z m27 -63 c5 -17 4 -20 -2 -10 -5 8 -13 26 -16 40 -5 17 -4 20 2 10 5 -8 13 -26 16 -40z m-407 -42 c-3 -7 -5 -2 -5 12 0 14 2 19 5 13 2 -7 2 -19 0 -25z m420 -5 c-4 -3 -7 0 -7 7 0 7 3 10 7 7 3 -4 3 -10 0 -14z m110 -40 c-3 -10 -5 -2 -5 17 0 19 2 27 5 18 2 -10 2 -26 0 -35z"/>
 </g>
<g id="layer105" fill="#55647d" stroke="none">
 <path d="M0 505 l0 -505 450 0 450 0 0 505 0 505 -450 0 -450 0 0 -505z m364 339 c9 -8 16 -23 16 -32 0 -12 -4 -9 -13 8 -12 24 -18 25 -112 31 l-100 5 97 2 c76 2 100 -1 112 -14z m229 -1 c-7 -2 -19 -2 -25 0 -7 3 -2 5 12 5 14 0 19 -2 13 -5z m205 -5 c7 -7 11 -37 10 -77 l-2 -66 -3 62 c-3 50 -8 65 -26 78 -15 11 -17 15 -6 15 8 0 20 -5 27 -12z m-296 -67 c4 -3 39 -91 78 -195 39 -104 77 -204 85 -222 8 -19 10 -34 6 -34 -5 0 -11 8 -15 18 -16 44 -26 71 -46 122 -11 30 -30 81 -42 114 -11 32 -27 70 -34 85 -8 14 -14 33 -14 41 -1 25 -26 62 -51 77 l-24 14 25 -7 c14 -3 28 -9 32 -13z m-283 -78 l-1 -48 -8 40 c-7 37 -5 55 6 55 2 0 3 -21 3 -47z m10 -110 l-2 -48 -6 40 c-7 38 -5 55 5 55 2 0 3 -21 3 -47z m568 -15 c-2 -13 -4 -3 -4 22 0 25 2 35 4 23 2 -13 2 -33 0 -45z m-560 -125 c-2 -16 -4 -3 -4 27 0 30 2 43 4 28 2 -16 2 -40 0 -55z m550 -30 c-2 -16 -4 -5 -4 22 0 28 2 40 4 28 2 -13 2 -35 0 -50z m-538 -55 l-1 -43 -8 35 c-8 32 -6 50 6 50 2 0 4 -19 3 -42z m528 -95 c-2 -16 -4 -5 -4 22 0 28 2 40 4 28 2 -13 2 -35 0 -50z"/>
 </g>
<g id="layer106" fill="#5b6c89" stroke="none">
 <path d="M0 505 l0 -505 450 0 450 0 0 505 0 505 -450 0 -450 0 0 -505z m368 343 c7 -7 11 -23 11 -37 -2 -23 -2 -23 -6 -4 -7 36 -25 42 -129 46 l-99 3 105 2 c72 1 110 -2 118 -10z m426 -7 c13 -11 16 -31 14 -100 l-2 -86 -3 82 c-4 97 -10 103 -96 114 l-62 8 66 -3 c38 -1 74 -8 83 -15z m-201 2 c-7 -2 -19 -2 -25 0 -7 3 -2 5 12 5 14 0 19 -2 13 -5z m-95 -70 c11 -10 27 -38 35 -63 13 -37 116 -308 142 -372 4 -10 3 -18 -1 -18 -10 0 -27 38 -80 183 -24 64 -46 121 -60 154 -8 17 -14 37 -14 45 -1 26 -28 61 -56 74 -25 11 -26 12 -8 13 12 1 31 -7 42 -16z m-250 -350 c4 -40 4 -80 1 -90 -6 -15 -8 -14 -9 7 -6 95 -10 142 -15 190 -18 183 -19 191 -15 215 1 11 9 -41 16 -115 7 -74 17 -167 22 -207z m549 120 c-2 -21 -4 -6 -4 32 0 39 2 55 4 38 2 -18 2 -50 0 -70z m-350 30 c-4 -3 -7 0 -7 7 0 7 3 10 7 7 3 -4 3 -10 0 -14z m-30 -80 c-4 -3 -7 0 -7 7 0 7 3 10 7 7 3 -4 3 -10 0 -14z m-10 -30 c-4 -3 -7 0 -7 7 0 7 3 10 7 7 3 -4 3 -10 0 -14z m383 -50 c0 -40 -4 -62 -9 -53 -7 14 -3 120 5 120 2 0 4 -30 4 -67z m-399 10 c-12 -20 -14 -14 -5 12 4 9 9 14 11 11 3 -2 0 -13 -6 -23z m-14 -40 c-4 -3 -7 0 -7 7 0 7 3 10 7 7 3 -4 3 -10 0 -14z m-26 -70 c-12 -20 -14 -14 -5 12 4 9 9 14 11 11 3 -2 0 -13 -6 -23z m426 -60 c-2 -16 -4 -3 -4 27 0 30 2 43 4 28 2 -16 2 -40 0 -55z m-440 20 c-4 -3 -7 0 -7 7 0 7 3 10 7 7 3 -4 3 -10 0 -14z m-10 -30 c-4 -3 -7 0 -7 7 0 7 3 10 7 7 3 -4 3 -10 0 -14z"/>
 </g>
<g id="layer107" fill="#676f7c" stroke="none">
 <path d="M0 505 l0 -505 450 0 450 0 0 505 0 505 -450 0 -450 0 0 -505z m368 343 c7 -7 11 -26 11 -42 -2 -30 -2 -30 -6 -4 -7 44 -23 50 -136 46 -58 -2 -103 0 -100 5 8 12 218 8 231 -5z m433 -9 c18 -18 20 -29 15 -87 -3 -37 -13 -170 -21 -296 -14 -203 -24 -266 -41 -266 -2 0 0 8 5 18 5 10 12 56 14 102 3 47 11 178 18 293 16 258 25 242 -131 242 -60 -1 -104 3 -97 7 7 4 58 8 115 8 90 0 104 -2 123 -21z m-298 -63 c8 -8 19 -27 25 -43 6 -15 42 -112 81 -214 74 -195 76 -199 63 -199 -7 0 -19 25 -47 100 -62 167 -76 203 -85 221 -5 9 -13 34 -19 55 -15 56 -33 77 -68 78 -17 0 -29 4 -26 9 7 12 61 8 76 -7z m-263 -241 c6 -82 13 -156 15 -162 2 -7 0 -23 -5 -35 -9 -23 -9 -23 -10 2 -5 82 -10 142 -15 190 -18 182 -19 191 -15 215 4 36 18 -57 30 -210z m209 36 c-6 -18 -13 -30 -15 -28 -2 2 1 18 7 36 6 18 13 30 15 28 2 -2 -1 -18 -7 -36z m-50 -135 c-17 -48 -33 -85 -35 -83 -5 4 11 57 31 102 7 17 16 40 20 53 4 13 9 22 11 19 3 -2 -10 -43 -27 -91z m-54 -151 c-20 -52 -31 -55 -14 -4 6 19 13 40 15 48 3 8 7 11 10 8 3 -3 -2 -26 -11 -52z"/>
 </g>
<g id="layer108" fill="#697d9e" stroke="none">
 <path d="M0 505 l0 -505 450 0 450 0 0 505 0 505 -450 0 -450 0 0 -505z m368 343 c7 -7 11 -26 11 -42 -2 -30 -2 -30 -6 -4 -7 44 -23 50 -136 46 -58 -2 -103 0 -100 5 8 12 218 8 231 -5z m433 -9 c18 -18 20 -29 15 -87 -3 -37 -13 -170 -21 -296 -14 -198 -24 -266 -39 -266 -3 0 0 12 4 28 16 48 45 582 33 601 -8 13 -32 17 -129 19 -148 3 -137 22 14 22 90 0 104 -2 123 -21z m-298 -63 c8 -8 19 -27 25 -43 6 -15 42 -112 81 -214 66 -173 85 -237 62 -213 -5 5 -16 29 -25 54 -8 25 -24 68 -34 95 -11 28 -41 108 -68 179 -39 104 -53 130 -73 137 -13 6 -31 7 -38 5 -8 -3 -11 -1 -8 4 9 15 62 12 78 -4z m-280 -63 c4 -27 11 -109 17 -183 6 -74 12 -144 14 -155 2 -11 1 -29 -4 -40 -8 -22 -13 7 -30 215 -6 69 -13 144 -16 168 -4 25 -2 42 4 42 5 0 12 -21 15 -47z m202 -204 c-18 -52 -47 -132 -64 -178 -17 -46 -31 -86 -31 -89 0 -3 -2 -3 -5 0 -3 2 4 31 16 64 11 32 26 77 34 99 7 22 20 56 27 75 8 19 23 57 32 83 10 27 20 47 22 44 2 -2 -12 -46 -31 -98z"/>
 </g>
<g id="layer109" fill="#7389ae" stroke="none">
 <path d="M0 505 l0 -505 450 0 450 0 0 505 0 505 -450 0 -450 0 0 -505z m384 339 c15 -39 0 -84 -28 -84 -6 0 -5 5 2 12 15 15 15 51 0 66 -8 8 -47 12 -112 12 -78 0 -103 -3 -118 -17 -20 -18 -25 -4 -6 15 8 8 52 12 134 12 102 0 123 -3 128 -16z m431 -7 c13 -21 13 -53 -5 -313 -11 -159 -24 -299 -30 -311 -5 -12 -19 -27 -32 -34 l-23 -12 20 23 c16 18 21 42 26 124 4 55 12 190 19 298 11 161 11 200 0 212 -10 13 -35 16 -124 16 -74 0 -116 -4 -124 -12 -7 -7 -12 -8 -12 -2 0 28 28 34 147 34 117 0 123 -1 138 -23z m-308 -54 c11 -10 51 -102 89 -205 39 -106 72 -181 76 -175 4 7 8 -15 8 -47 0 -67 -10 -66 -34 4 -8 25 -24 68 -34 95 -11 28 -41 108 -68 179 -40 105 -53 130 -73 138 -17 6 -33 6 -48 -1 -27 -12 -32 3 -5 18 26 16 68 13 89 -6z m-240 -30 l-39 -4 6 -47 c3 -26 8 -85 11 -132 3 -47 8 -103 12 -124 l5 -40 15 25 c16 26 15 20 -12 -59 -9 -29 -19 -51 -21 -49 -3 2 -11 80 -19 173 -8 93 -17 190 -21 217 l-6 47 54 -2 c44 -1 47 -2 15 -5z m112 -72 c-12 -34 -23 -60 -25 -58 -2 2 6 32 17 66 12 34 23 60 25 58 2 -2 -6 -32 -17 -66z m-262 -13 c-3 -7 -5 -2 -5 12 0 14 2 19 5 13 2 -7 2 -19 0 -25z m580 -30 c-2 -13 -4 -5 -4 17 -1 22 1 32 4 23 2 -10 2 -28 0 -40z m-356 -55 c-12 -20 -14 -14 -5 12 4 9 9 14 11 11 3 -2 0 -13 -6 -23z m118 -18 c-7 -10 -57 -141 -101 -270 -23 -65 -53 -115 -70 -115 -6 0 -4 8 5 18 9 10 25 45 36 77 21 66 92 262 111 310 11 27 13 28 20 10 4 -11 4 -25 -1 -30z m-332 -32 c-3 -10 -5 -4 -5 12 0 17 2 24 5 18 2 -7 2 -21 0 -30z m187 -27 c-9 -26 -18 -45 -20 -43 -2 2 3 25 12 51 9 26 18 45 20 43 2 -2 -3 -25 -12 -51z m373 -18 c-2 -13 -4 -3 -4 22 0 25 2 35 4 23 2 -13 2 -33 0 -45z m-550 -75 c-3 -10 -5 -4 -5 12 0 17 2 24 5 18 2 -7 2 -21 0 -30z m10 -105 c-3 -8 -6 -5 -6 6 -1 11 2 17 5 13 3 -3 4 -12 1 -19z m566 -145 c-7 -2 -21 -2 -30 0 -10 3 -4 5 12 5 17 0 24 -2 18 -5z"/>
 </g>
<g id="layer110" fill="#feffff" stroke="none">
 <path d="M147 843 c-10 -3 -22 -15 -27 -28 -12 -31 33 -553 50 -585 17 -33 40 -49 67 -50 43 0 70 40 121 185 28 77 60 167 72 199 l23 59 78 -209 c83 -223 97 -244 155 -244 48 0 71 27 78 92 14 123 36 536 30 551 -9 24 -35 28 -149 25 l-100 -3 0 -35 0 -35 83 -3 c45 -2 82 -6 82 -10 0 -4 -7 -97 -15 -207 -8 -110 -15 -210 -15 -223 0 -13 -4 -21 -9 -18 -4 3 -46 106 -91 228 -46 123 -87 227 -91 232 -12 14 -62 10 -74 -7 -6 -9 -47 -113 -90 -231 -43 -119 -80 -215 -81 -213 -2 2 -10 79 -19 173 -8 93 -18 193 -21 222 l-5 52 75 0 c72 0 77 2 88 25 9 21 8 28 -7 45 -16 17 -30 20 -104 19 -47 -1 -94 -3 -104 -6z"/>
 </g>

</svg>