<?xml version="1.0"?>
<svg xmlns="http://www.w3.org/2000/svg" height="512px" viewBox="0 -3 512 512" width="512px" class=""><g><path d="m87.941406 390.214844c-21.773437 0-39.488281 17.710937-39.488281 39.488281 0 21.773437 17.714844 39.484375 39.488281 39.484375 21.773438 0 39.488282-17.710938 39.488282-39.484375 0-21.777344-17.714844-39.488281-39.488282-39.488281zm0 63.765625c-13.386718 0-24.277344-10.890625-24.277344-24.277344 0-13.390625 10.890626-24.28125 24.277344-24.28125 13.390625 0 24.28125 10.890625 24.28125 24.28125 0 13.386719-10.890625 24.277344-24.28125 24.277344zm0 0" data-original="#000000" class="active-path" data-old_color="#000000" fill="#FFFBFB"/><path d="m290.394531 390.214844c-21.773437 0-39.488281 17.710937-39.488281 39.488281 0 21.773437 17.714844 39.484375 39.488281 39.484375 21.773438 0 39.488281-17.710938 39.488281-39.484375 0-21.777344-17.714843-39.488281-39.488281-39.488281zm0 63.765625c-13.386719 0-24.28125-10.890625-24.28125-24.277344 0-13.390625 10.894531-24.28125 24.28125-24.28125s24.28125 10.890625 24.28125 24.28125c0 13.386719-10.894531 24.277344-24.28125 24.277344zm0 0" data-original="#000000" class="active-path" data-old_color="#000000" fill="#FFFBFB"/><path d="m512 202.421875v-97.890625c0-17.351562-14.117188-31.46875-31.472656-31.46875h-97.890625c-5.949219 0-11.515625 1.660156-16.261719 4.535156v-69.992187c0-4.199219-3.40625-7.605469-7.605469-7.605469h-31.703125c-4.203125 0-7.605468 3.40625-7.605468 7.605469v55.335937c0 4.199219 3.402343 7.601563 7.605468 7.601563 4.199219 0 7.601563-3.402344 7.601563-7.601563v-47.734375h16.496093v332.84375c0 17.351563 14.121094 31.472657 31.472657 31.472657h46.796875v16.503906h-70.957032c-5.546874-11.171875-13.761718-20.78125-23.808593-28.015625v-274.65625c0-4.199219-3.402344-7.605469-7.605469-7.605469-4.199219 0-7.601562 3.40625-7.601562 7.605469v235.28125h-21.035157l-82.628906-231.515625c-5.136719-14.390625-18.851563-24.058594-34.132813-24.058594h-128.554687c-19.980469 0-36.238281 16.253906-36.238281 36.238281v162.722657c0 4.199218 3.402344 7.605468 7.605468 7.605468 4.199219 0 7.601563-3.40625 7.601563-7.605468v-162.722657c0-11.597656 9.4375-21.03125 21.03125-21.03125h128.554687c8.867188 0 16.828126 5.609375 19.808594 13.960938l80.804688 226.40625h-250.199219v-26.195313c0-4.199218-3.402344-7.605468-7.601563-7.605468-4.203124 0-7.605468 3.40625-7.605468 7.605468v26.195313h-9.265625c-4.199219 0-7.605469 3.40625-7.605469 7.605469v93.457031c0 4.199219 3.40625 7.605469 7.605469 7.605469h4.742187c3.824219 38.335937 36.265625 68.375 75.59375 68.375 39.332032 0 71.773438-30.039063 75.597656-68.375h51.257813c3.828125 38.335937 36.269531 68.375 75.597656 68.375 41.894531 0 75.976563-34.082032 75.976563-75.976563 0-6.371094-.796875-12.554687-2.28125-18.46875h72.949218c4.199219 0 7.601563-3.402344 7.601563-7.605469v-24.105468h35.886719c17.355468 0 31.472656-14.117188 31.472656-31.472657v-97.890625c0-9.539062-4.269531-18.09375-10.996094-23.867187 6.726563-5.777344 10.996094-14.332031 10.996094-23.871094zm-192.539062 141.421875v15.667969c-8.960938-3.722657-18.773438-5.789063-29.066407-5.789063-39.328125 0-71.769531 30.035156-75.597656 68.371094h-51.257813c-3.828124-38.335938-36.269531-68.371094-75.597656-68.371094-34.265625 0-63.296875 22.808594-72.734375 54.039063v-63.917969zm-231.519532 146.628906c-33.507812 0-60.769531-27.261718-60.769531-60.769531 0-33.511719 27.261719-60.773437 60.769531-60.773437 33.511719 0 60.773438 27.261718 60.773438 60.773437 0 33.507813-27.261719 60.769531-60.773438 60.769531zm202.453125 0c-33.507812 0-60.769531-27.261718-60.769531-60.769531 0-33.511719 27.261719-60.773437 60.769531-60.773437 33.507813 0 60.769531 27.261718 60.769531 60.773437 0 33.507813-27.261718 60.769531-60.769531 60.769531zm206.398438-240.3125v97.890625c0 8.96875-7.296875 16.265625-16.265625 16.265625l-97.890625-.003906c-.007813 0-.011719 0-.019531 0-8.957032-.007812-16.242188-7.300781-16.242188-16.261719v-97.890625c0-8.96875 7.292969-16.265625 16.261719-16.265625h97.890625c8.96875 0 16.265625 7.296875 16.265625 16.265625zm-114.15625-31.472656c-8.96875 0-16.261719-7.296875-16.261719-16.261719v-97.894531c0-8.964844 7.292969-16.261719 16.261719-16.261719h97.890625c8.96875 0 16.265625 7.296875 16.265625 16.261719v97.890625c0 8.96875-7.296875 16.265625-16.265625 16.265625zm0 0" data-original="#000000" class="active-path" data-old_color="#000000" fill="#FFFBFB"/><path d="m173.285156 128.800781c-1.082031-3.027343-3.949218-5.046875-7.164062-5.046875h-90.953125c-4.199219 0-7.605469 3.40625-7.605469 7.605469v117.6875c0 4.199219 3.40625 7.605469 7.605469 7.605469h132.949219c2.472656 0 4.789062-1.203125 6.214843-3.222656 1.425781-2.019532 1.777344-4.609376.945313-6.9375zm-90.511718 112.644531v-102.484374h77.988281l36.566406 102.484374zm0 0" data-original="#000000" class="active-path" data-old_color="#000000" fill="#FFFBFB"/><path d="m178.390625 281.746094c0 4.199218 3.40625 7.601562 7.605469 7.601562h33.691406c4.199219 0 7.601562-3.402344 7.601562-7.601562 0-4.199219-3.402343-7.605469-7.601562-7.605469h-33.691406c-4.199219 0-7.605469 3.40625-7.605469 7.605469zm0 0" data-original="#000000" class="active-path" data-old_color="#000000" fill="#FFFBFB"/></g> </svg>
