<?xml version="1.0"?>
<svg xmlns="http://www.w3.org/2000/svg" id="Capa_1" enable-background="new 0 0 512 512" height="512px" viewBox="0 0 512 512" width="512px" class=""><g><g><path d="m338.837 411.788c-4.143 0-7.5 3.358-7.5 7.5s3.357 7.5 7.5 7.5c42.996 0 44.215-20 82.832-20 28.945 0 35.474 10.454 55.7 16.446 3.974 1.18 8.145-1.09 9.322-5.061s-1.089-8.145-5.061-9.321c-17.684-5.24-27.448-17.064-59.962-17.064-42.995 0-44.214 20-82.831 20z" data-original="#000000" class="active-path" data-old_color="#000000" fill="#FFFEFE"/><path d="m256.007 394.788c-42.997 0-44.215 20-82.833 20-38.785 0-39.633-20-82.837-20-4.142 0-7.5 3.358-7.5 7.5s3.358 7.5 7.5 7.5c38.785 0 39.633 20 82.837 20 42.997 0 44.215-20 82.833-20 4.143 0 7.5-3.358 7.5-7.5s-3.358-7.5-7.5-7.5z" data-original="#000000" class="active-path" data-old_color="#000000" fill="#FFFEFE"/><path d="m123.687 331.428c4.089.483 7.838-2.439 8.324-6.573.734-6.241 3.003-8.806 6.144-12.355 3.798-4.292 8.524-9.635 9.807-20.544 1.282-10.909-2.076-17.202-4.775-22.258-2.232-4.181-3.845-7.202-3.111-13.443.733-6.24 3.002-8.804 6.143-12.353 3.798-4.292 8.524-9.634 9.807-20.542.483-4.114-2.459-7.841-6.573-8.324-4.113-.491-7.841 2.459-8.324 6.573-.733 6.239-3.002 8.804-6.143 12.353-3.798 4.292-8.524 9.633-9.807 20.542-1.282 10.909 2.076 17.202 4.775 22.258 2.232 4.181 3.845 7.202 3.111 13.443-.733 6.241-3.003 8.806-6.144 12.355-3.798 4.292-8.524 9.635-9.807 20.544-.483 4.114 2.46 7.84 6.573 8.324z" data-original="#000000" class="active-path" data-old_color="#000000" fill="#FFFEFE"/><path d="m187.128 290.503c.022 6.284-1.922 9.103-4.613 13.005-3.254 4.718-7.303 10.59-7.264 21.574.014 4.07 3.296 7.473 7.527 7.473 4.142-.015 7.488-3.385 7.473-7.527-.022-6.284 1.922-9.103 4.612-13.004 3.254-4.718 7.304-10.59 7.265-21.574-.04-10.984-4.131-16.827-7.418-21.521-2.718-3.882-4.683-6.688-4.705-12.972-.022-6.282 1.921-9.101 4.612-13.002 3.254-4.718 7.304-10.589 7.264-21.572-.015-4.133-3.37-7.473-7.5-7.473-4.149 0-7.515 3.37-7.5 7.527.022 6.283-1.921 9.101-4.612 13.002-3.254 4.718-7.304 10.589-7.265 21.572.039 10.984 4.13 16.827 7.418 21.522 2.719 3.882 4.683 6.687 4.706 12.97z" data-original="#000000" class="active-path" data-old_color="#000000" fill="#FFFEFE"/><path d="m385.093 302.56c-3.141-3.55-5.41-6.114-6.144-12.355s.879-9.262 3.11-13.443c2.699-5.056 6.058-11.349 4.774-22.258-1.281-10.908-6.008-16.25-9.806-20.542-3.141-3.549-5.409-6.113-6.144-12.353-.483-4.115-4.214-7.06-8.324-6.573-4.113.483-7.057 4.21-6.572 8.324 1.281 10.908 6.008 16.25 9.806 20.542 3.141 3.549 5.409 6.113 6.144 12.353.733 6.241-.879 9.262-3.111 13.443-2.698 5.056-6.057 11.349-4.774 22.258 1.282 10.909 6.009 16.25 9.807 20.543 3.141 3.55 5.409 6.114 6.143 12.355.449 3.816 3.689 6.625 7.439 6.625 4.497 0 7.983-3.915 7.458-8.376-1.282-10.908-6.008-16.25-9.806-20.543z" data-original="#000000" class="active-path" data-old_color="#000000" fill="#FFFEFE"/><path d="m337.009 256.01c.039-10.983-4.011-16.854-7.265-21.572-2.69-3.901-4.634-6.72-4.611-13.002.015-4.15-3.344-7.527-7.501-7.527-4.129 0-7.484 3.34-7.499 7.473-.04 10.984 4.01 16.855 7.264 21.573 2.69 3.901 4.635 6.72 4.612 13.002-.022 6.284-1.986 9.089-4.705 12.972-3.287 4.695-7.379 10.538-7.418 21.521-.039 10.984 4.011 16.856 7.265 21.574 2.69 3.902 4.635 6.721 4.612 13.004-.015 4.142 3.331 7.512 7.474 7.527 4.218 0 7.512-3.39 7.526-7.473.039-10.984-4.011-16.856-7.265-21.574-2.69-3.902-4.635-6.721-4.612-13.005.022-6.284 1.986-9.089 4.705-12.972 3.287-4.694 7.379-10.537 7.418-21.521z" data-original="#000000" class="active-path" data-old_color="#000000" fill="#FFFEFE"/><path d="m504.5 57.763h-66.287v-5.597c0-4.142-3.357-7.5-7.5-7.5h-34.799c-4.143 0-7.5 3.358-7.5 7.5v5.597h-216.844c-4.142 0-7.5 3.358-7.5 7.5s3.358 7.5 7.5 7.5h216.844v10.674h-264.815v-10.674h12.971c4.142 0 7.5-3.358 7.5-7.5s-3.358-7.5-7.5-7.5h-12.971v-5.597c0-4.142-3.358-7.5-7.5-7.5h-34.799c-4.142 0-7.5 3.358-7.5 7.5v5.597h-66.286c-4.142 0-7.5 3.358-7.5 7.5 0 301.848-.014 265.393-.014 394.571 0 4.142 3.358 7.5 7.5 7.5h497c4.143 0 7.5-3.358 7.5-7.5v-394.571c0-4.142-3.357-7.5-7.5-7.5zm-35.867 305.325-10.422-29.183c-1.394-3.901-5.683-5.934-9.586-4.541-3.9 1.393-5.934 5.685-4.541 9.585l5.78 16.185c-7.319-2.274-16.254-3.893-28.195-3.893-42.996 0-44.215 20-82.832 20-28.835 0-35.339-10.343-55.457-16.357l-2.375-166.275c10.989-2.069 12.417-7.335 23.031-7.335 12.485 0 13.504 8 30.629 8 17.082 0 18.19-8 30.625-8 11.103 0 12.636 6.1 25.224 7.678l41.593 116.46c1.096 3.067 3.983 4.979 7.063 4.979 5.159 0 8.812-5.127 7.063-10.024l-39.676-111.093h18.87l64.613 180.916c-8.933-1.43-15.219-4.148-21.407-7.102zm-394.833-182.613-58.786 164.604v-216.889h58.786zm12.785 8.799h18.871l-62.073 173.808c-6.189 2.954-12.475 5.675-21.409 7.106zm144.522-16.127c-4.38-1.567-8.126-4.912-15.954-6.286v-21.171c0-4.142-3.358-7.5-7.5-7.5s-7.5 3.358-7.5 7.5v21.292c-7.371 1.44-11.089 4.66-15.3 6.166v-27.458c0-4.142-3.358-7.5-7.5-7.5s-7.5 3.358-7.5 7.5v27.456c-4.247-1.52-7.914-4.722-15.3-6.164v-21.292c0-4.142-3.358-7.5-7.5-7.5s-7.5 3.358-7.5 7.5v21.171c-7.828 1.374-11.594 4.727-15.954 6.286v-44.957h107.508zm-109.608 15.805c12.478-1.564 14.173-7.678 25.229-7.678 12.485 0 13.504 8 30.629 8 17.083 0 18.189-8 30.625-8 10.593 0 12.041 5.266 23.028 7.335l-2.375 166.276c-20.128 6.016-26.638 16.357-55.46 16.357-38.785 0-39.633-20-82.837-20-11.937 0-20.869 1.617-28.187 3.89zm124.502.322h20.012l2.323 162.61c-7.608-.838-16.682-.878-24.657 0zm192.212-61.084h58.787v216.888l-58.787-164.604zm58.787-55.427v40.427h-58.787v-40.427zm-93.586-13.097h19.799v114.608h-19.799zm-15 53.524h-59.054c-4.143 0-7.5 3.358-7.5 7.5s3.357 7.5 7.5 7.5h59.054v44.957c-4.352-1.557-8.125-4.912-15.954-6.286v-21.171c0-4.142-3.357-7.5-7.5-7.5s-7.5 3.358-7.5 7.5v21.293c-7.371 1.44-11.089 4.66-15.3 6.166v-27.459c0-4.142-3.357-7.5-7.5-7.5s-7.5 3.358-7.5 7.5v27.456c-4.247-1.52-7.914-4.722-15.3-6.164v-21.292c0-4.142-3.357-7.5-7.5-7.5s-7.5 3.358-7.5 7.5v21.171c-7.828 1.374-11.594 4.727-15.954 6.286v-44.957h13.454c4.143 0 7.5-3.358 7.5-7.5s-3.357-7.5-7.5-7.5h-13.454v-14.752h107.508zm-122.508-14.752v75.836h-19.799v-75.836zm-34.799 0v14.753h-107.508v-14.753zm-142.307-38.772h19.799v114.608h-19.799zm-73.786 13.097h58.786v40.427h-58.786zm481.986 379.571h-482v-66.32c17.693-1.108 27.977-6.075 37.18-10.519 9.855-4.759 19.164-9.254 38.157-9.254 38.785 0 39.633 20 82.837 20 42.997 0 44.215-20 82.833-20 38.783 0 39.629 20 82.83 20 42.996 0 44.215-20 82.832-20 36.809 0 38.705 17.476 75.331 19.772z" data-original="#000000" class="active-path" data-old_color="#000000" fill="#FFFEFE"/></g></g> </svg>
