<?xml version="1.0" encoding="iso-8859-1"?>
<!-- Generator: Adobe Illustrator 22.1.0, SVG Export Plug-In . SVG Version: 6.00 Build 0)  -->
<svg xmlns="http://www.w3.org/2000/svg" xmlns:xlink="http://www.w3.org/1999/xlink" version="1.1" id="Layer_1_1_" x="0px" y="0px" viewBox="0 0 64 64" style="enable-background:new 0 0 64 64;" xml:space="preserve" width="512" height="512">
<g>
	<rect x="9" y="30" style="fill:#F0BC5E;" width="12" height="16"/>
	<g>
		<path style="fill:#F0BC5E;" d="M21,27H9V17h12V27z"/>
	</g>
	<g>
		<rect x="15" y="5" width="8" height="2"/>
		<rect x="25" y="5" width="2" height="2"/>
		<rect x="11" y="5" width="2" height="2"/>
		<rect x="16" y="57" width="6" height="2"/>
		<path d="M50.553,18.5l5.034-4.738C56.485,12.917,57,11.725,57,10.491C57,8.015,54.985,6,52.409,6    c-1.169,0-2.276,0.447-3.118,1.258L42.3,14h-4.815c-0.163,0-0.324,0.013-0.485,0.024V6c0-2.757-2.243-5-5-5H6C3.243,1,1,3.243,1,6    v52c0,2.757,2.243,5,5,5h26c2.757,0,5-2.243,5-5V32h-8.5c-0.827,0-1.5-0.673-1.5-1.5s0.673-1.5,1.5-1.5h8.914    c1.279,0,2.496-0.483,3.427-1.359l8.254-7.769L61,31.423v15.163L48.465,34.051C47.143,32.729,45.385,32,43.515,32H39v2h4.515    c1.336,0,2.592,0.521,3.536,1.465L63,51.414V30.577L50.553,18.5z M50.68,8.698C51.146,8.248,51.761,8,52.509,8    C53.882,8,55,9.118,55,10.491c0,0.684-0.286,1.346-0.784,1.814l-2.831,2.665l-3.539-3.539L50.68,8.698z M6,3h26    c1.654,0,3,1.346,3,3v3H3V6C3,4.346,4.346,3,6,3z M32,61H6c-1.654,0-3-1.346-3-3v-3h32v3C35,59.654,33.654,61,32,61z M35,53H3V11    h32v3.46c-0.722,0.274-1.398,0.665-2,1.169V13H5v38h28V35.568L34.626,34H35V53z M25.002,30.523c0,0.049,0.012,0.095,0.014,0.143    l-2.904,2.801l-2.568,8.989l8.971-2.563L31,37.496V49H7V15h24v2.586l-6.878,6.878C23.398,25.188,23,26.149,23,27.171    C23,28.59,23.796,29.863,25.002,30.523z M23.495,35.909l2.597,2.597l-3.635,1.038L23.495,35.909z M28.5,34h3.245l-3.732,3.599    l-3.586-3.586l1.368-1.319C26.438,33.484,27.405,34,28.5,34z M28.5,27c-1.193,0-2.245,0.602-2.877,1.515    C25.246,28.176,25,27.702,25,27.171c0-0.488,0.19-0.947,0.536-1.293l8.414-8.414C34.894,16.52,36.15,16,37.485,16h2.741L28.818,27    H28.5z M39.47,26.185C38.911,26.71,38.181,27,37.414,27H31.7l14.706-14.18l3.522,3.522L39.47,26.185z"/>
		<rect x="9" y="29" width="12" height="2"/>
		<rect x="9" y="33" width="10" height="2"/>
		<rect x="9" y="37" width="10" height="2"/>
		<rect x="9" y="41" width="8" height="2"/>
		<rect x="9" y="45" width="20" height="2"/>
	</g>
</g>
</svg>
