<svg id="icons" enable-background="new 0 0 64 64" height="512" viewBox="0 0 64 64" width="512" xmlns="http://www.w3.org/2000/svg"><g><path d="m41 15.5h-18c-.55 0-1 .449-1 1v14 2 2 2 4 2 2h20v-2c0-.549 0-1.449 0-2v-4c0-.549 0-1.449 0-2v-2c0-.551 0-1.451 0-2v-14c0-.551-.45-1-1-1z" fill="#da4453"/><path d="m41 20.5h-18c-.55 0-1 .449-1 1v14 2 2 2 4 2 2h20v-2c0-.549 0-1.449 0-2v-4c0-.549 0-1.449 0-2v-2c0-.551 0-1.451 0-2v-14c0-.551-.45-1-1-1z" fill="#ed5565"/><g><path d="m52.99 47.49c-.9 1.219-2.36 2.01-3.99 2.01h-7v-4h7c1.63 0 3.07.779 3.99 1.99z" fill="#5d9cec"/></g><g><path d="m22 45.5v4h-7c-1.63 0-3.09-.791-3.99-2.01.91-1.201 2.36-1.99 3.99-1.99z" fill="#5d9cec"/></g><g><path d="m22 36.5v3h-7c-2.76 0-5 2.24-5 5 0 1.129.37 2.16 1.01 2.99.9 1.219 2.36 2.01 3.99 2.01h7 20 7c1.63 0 3.09-.791 3.99-2.01.64-.83 1.01-1.871 1.01-2.99 0-2.76-2.24-5-5-5h-7v-3h7c4.42 0 8 3.58 8 8s-3.58 8-8 8h-34c-4.42 0-8-3.58-8-8s3.58-8 8-8z" fill="#965353"/></g><g><g><path d="m49 39.5c2.76 0 5 2.24 5 5 0 1.119-.37 2.16-1.01 2.99-.92-1.211-2.36-1.99-3.99-1.99h-7v-6z" fill="#844747"/></g><g><path d="m22 39.5v6h-7c-1.63 0-3.08.789-3.99 1.99-.64-.83-1.01-1.861-1.01-2.99 0-2.76 2.24-5 5-5z" fill="#844747"/></g><g><path d="m57 44.5v19h-50v-19c0 4.42 3.58 8 8 8h34c4.42 0 8-3.58 8-8z" fill="#844747"/></g></g><g><g><path d="m48.001 33.5c-.323 0-.641-.156-.833-.445-.307-.459-.183-1.08.277-1.387.002-.002 2.196-1.725-.354-7.248-3.32-7.193.202-9.65.354-9.752.46-.307 1.08-.182 1.387.277.302.453.186 1.064-.259 1.375-.077.061-2.182 1.811.335 7.262 3.32 7.193-.202 9.65-.354 9.75-.17.113-.363.168-.553.168z" fill="#e6e9ed"/></g><g><path d="m15.002 33.5c-.323 0-.641-.156-.833-.445-.307-.459-.183-1.08.277-1.387.002-.002 2.196-1.725-.354-7.248-3.32-7.193.202-9.65.354-9.752.46-.307 1.081-.182 1.387.277.302.453.186 1.064-.259 1.375-.077.061-2.182 1.811.335 7.262 3.32 7.193-.202 9.65-.354 9.75-.17.113-.363.168-.553.168z" fill="#e6e9ed"/></g><g><path d="m25.002 12.5c-.256 0-.512-.098-.707-.293-.388-.387-.391-1.016-.008-1.406.149-.158 1.351-1.543-.117-3.744-1.941-2.912-.768-5.371.125-6.264.391-.391 1.023-.391 1.414 0s.391 1.023 0 1.414c-.134.143-1.348 1.531.125 3.74 1.941 2.912.768 5.369-.125 6.26-.195.195-.451.293-.707.293z" fill="#e6e9ed"/></g><g><path d="m32.002 12.5c-.256 0-.512-.098-.707-.293-.388-.387-.391-1.016-.008-1.406.149-.158 1.351-1.543-.117-3.744-1.941-2.912-.768-5.371.125-6.264.391-.391 1.023-.391 1.414 0s.391 1.023 0 1.414c-.134.143-1.348 1.531.125 3.74 1.941 2.912.768 5.369-.125 6.26-.195.195-.451.293-.707.293z" fill="#e6e9ed"/></g><g><path d="m39.002 12.5c-.256 0-.512-.098-.707-.293-.388-.387-.391-1.016-.008-1.406.149-.158 1.351-1.543-.117-3.744-1.941-2.912-.768-5.371.125-6.264.391-.391 1.023-.391 1.414 0s.391 1.023 0 1.414c-.134.143-1.348 1.531.125 3.74 1.941 2.912.768 5.369-.125 6.26-.195.195-.451.293-.707.293z" fill="#e6e9ed"/></g></g></g></svg>